<svg xmlns="http://www.w3.org/2000/svg" viewBox="0 0 1000 400" width="200" height="80">
  <path fill="#1F70C1" d="M0,0v27.367h194.648V0H0z M222.824,0v27.367h277.918c0,0-29.182-27.367-67.784-27.367
    H222.824z M528.594,0v27.367h132.586L651.294,0H528.594z M695.324,0l-9.889,27.367h114.964L810.288,0H695.324z
    M849.297,0l-9.889,27.367H1000V0H849.297z M0,53.692v27.366h194.648V53.692H0z M222.824,53.692v27.366h309.856
    c0,0-1.664-19.874-11.68-27.366H222.824z M528.594,53.692v27.366h161.194l-10.019-27.366H528.594z M664.765,53.692
    l-9.889,27.366h143.963l9.889-27.366H664.765z M818.738,53.692l-9.889,27.366H1000V53.692H818.738z M55.666,107.285v27.367h83.316
    v-27.367H55.666z M278.492,107.285v27.367h83.315v-27.367H278.492z M361.807,107.285v27.367h139.023
    c0,0,17.535-13.684,22.406-27.367H361.807z M528.595,107.285v27.367h104.411l-9.891-27.367H528.595z M634.315,107.285
    l-9.89,27.367h83.316l9.889-27.367H634.315z M788.179,107.285l-9.891,27.367h83.317l9.89-27.367H788.179z
    M55.666,160.878v27.368h83.316v-27.368H55.666z M138.982,160.878v27.368h139.023v-27.368H138.982z M361.807,160.878v27.368h161.417
    c0,0-1.163-23.128-22.394-27.368H361.807z M528.594,160.878v27.368h66.399l-9.889-27.368H528.594z M603.756,160.878
    l-9.889,27.368h83.315l9.89-27.368H603.756z M757.621,160.878l-10.016,27.368h83.442l9.89-27.368H757.621z M55.666,214.597
    v27.367h83.316v-27.367H55.666z M138.982,214.597v27.367h139.023v-27.367H138.982z M361.807,214.597v27.367h139.023
    c0,0,5.846-13.684,0-27.367H361.807z M528.594,214.597v27.367h55.678c0,0,5.716-20.898,3.32-27.367H528.594z M573.075,214.597
    l-9.89,27.367h83.317l9.889-27.367H573.075z M727.062,214.597l-10.018,27.367h83.442l9.89-27.367H727.062z M55.666,268.19v27.367
    h83.316V268.19H55.666z M278.492,268.19v27.367h83.315V268.19H278.492z M361.807,268.19v27.367h139.023
    c0,0,22.406-13.683,22.406-27.367H361.807z M528.594,268.19v27.367h58.997c0,0,10.996-15.078,14.99-27.367H528.594z
    M542.581,268.19l-9.889,27.367h83.315l9.889-27.367H542.581z M696.569,268.19l-9.889,27.367h83.317L780.01,268.19H696.569z
    M0,321.784v27.368h194.648v-27.368H0z M222.824,321.784v27.368h298.177c0,0-11.682-19.874-11.682-27.368H222.824z
    M528.594,321.784v27.368h73.988c0,0,14.866-11.555,19.999-27.368H528.594z M512.112,321.784l-9.889,27.368h83.315
    l9.891-27.368H512.112z M666.011,321.784l-9.889,27.368h83.316l9.889-27.368H666.011z M0,375.376v27.368h194.648v-27.368H0z
    M222.824,375.376v27.368h277.918c0,0,29.206-27.368,67.784-27.368H222.824z M528.594,375.376v27.368h93.987
    c0,0,32.71-22.185,38.599-27.368H528.594z M481.614,375.376l-9.889,27.368h83.315l9.891-27.368H481.614z M635.567,375.376
    l-9.889,27.368h83.317l9.889-27.368H635.567z"/>
</svg> 