<svg xmlns="http://www.w3.org/2000/svg" viewBox="0 0 602 182" width="200" height="60">
  <path d="M374.006,142.184L374.006,142.184l-22.223,0.001c-0.852,0-1.542-0.693-1.542-1.539v-71.108 c0-0.85,0.69-1.54,1.542-1.54l20.67,0.001c0.871,0,1.569,0.699,1.569,1.561v9.28h0.429c5.375-14.309,15.468-21.025,29.098-21.025 c13.802,0,22.424,6.716,28.6,21.025c5.376-14.309,17.545-21.025,30.549-21.025c9.28,0,19.418,3.825,25.635,12.389 c7.031,9.492,5.595,23.255,5.595,35.302v34.4c0,0.85-0.691,1.539-1.544,1.539h-22.221c-0.852,0-1.539-0.693-1.539-1.539V109.93 c0-3.396,0.304-11.86-0.442-15.105c-1.174-5.405-4.672-6.928-9.21-6.928c-3.826,0-7.822,2.551-9.424,6.619 c-1.615,4.075-1.463,10.879-1.463,15.415v30.713c0,0.85-0.689,1.539-1.542,1.539h-22.219c-0.854,0-1.544-0.693-1.544-1.539 v-32.262c0-8.983,1.473-22.153-10.162-22.153c-11.858,0-11.397,12.866-11.397,22.153v32.262 C375.546,141.491,374.859,142.184,374.006,142.184z M247.242,83.269c-16.338,0-17.439,22.214-17.439,36.023 c0,13.841,0.683,43.235,17.172,43.235c17.26,0,18.093-23.896,18.093-38.483c0-9.492-0.428-20.944-3.261-29.925 C259.035,85.813,254.099,83.269,247.242,83.269z M247.242,64.725c44.903,0,44.903,61.024,44.903,97.967 c0,39.387-17.568,97.967-44.903,97.967c-28.052,0-43.384-61.621-43.384-103.572C203.858,123.049,216.631,64.725,247.242,64.725z M560.254,142.184L560.254,142.184l-22.041,0.001c-0.853,0-1.542-0.693-1.542-1.539V69.538c0-0.897,0.722-1.54,1.542-1.54 l20.552,0.001c0.853,0,1.51,0.675,1.538,1.42v10.009h0.431c6.203-15.525,14.886-22.888,30.152-22.888 c9.918,0,19.636,3.58,25.863,13.389c5.798,9.071,5.798,24.399,5.798,35.365v35.288c-0.099,0.785-0.752,1.397-1.561,1.397 h-22.281c-0.739,0-1.354-0.6-1.521-1.334v-33.755c0-8.896,1.032-21.899-9.928-21.899c-3.845,0-7.386,2.56-9.136,6.462 c-2.218,4.924-2.521,9.845-2.521,15.437v33.367C561.793,141.491,561.104,142.184,560.254,142.184z M43.116,101.739 c0,8.328,0.208,15.266-4.005,22.697c-3.429,6.088-8.864,9.813-14.917,9.813c-8.266,0-13.108-6.268-13.108-15.542 c0-18.275,16.468-21.601,32.03-21.601V101.739z M65.13,142.159c-0.915,0.813-2.235,0.87-3.269,0.323 c-4.599-3.81-5.417-5.594-7.956-9.192c-7.611,7.742-13.001,10.069-22.9,10.069c-11.682,0-20.804-7.155-20.804-21.5 c0-11.215,6.156-18.825,14.833-22.553c7.518-3.307,18.003-3.891,26.008-4.798v-1.795c0-3.253,0.268-7.109-1.688-9.909 c-1.684-2.491-4.92-3.521-7.769-3.521c-5.279,0-9.996,2.666-11.151,8.264c-0.238,1.235-1.164,2.449-2.441,2.506l-21.5-2.304 c-1.822-0.399-2.873-1.85-2.494-3.219C12.152,53.46,39.685,47.56,64.685,47.56c12.466,0,28.733,3.244,38.544,12.45 c12.407,11.407,11.223,26.613,11.223,43.185v39.022c0,11.747,4.948,16.923,9.597,23.265c1.63,2.252,1.995,4.935-0.089,6.591 c-5.156,4.332-14.327,12.24-19.367,16.717L65.13,142.159z M134.495,157.89c-30.113-34.599-72.81-53.439-119.539-53.439 c-56.303,0-107.017,20.68-145.297,55.046c-3.092,2.789-0.284,6.598,3.346,4.429c41.825-24.024,93.119-38.585,146.371-38.585 c35.999,0,75.691,7.378,112.096,22.634C135.827,149.676,138.053,161.926,134.495,157.89z M150.904,172.335 c-3.853-4.909-25.414-2.329-35.155-1.184c-2.947,0.343-3.402-2.211-0.753-4.063c17.229-12.018,45.469-8.55,48.801-4.52 c3.306,4.069-0.91,32.056-16.926,45.432c-2.453,2.054-4.808,0.961-3.728-1.764C146.998,196.381,154.736,177.201,150.904,172.335 z" fill="#FF9900"/>
</svg> 