<svg xmlns="http://www.w3.org/2000/svg" viewBox="0 0 800 800" width="200" height="200">
  <path fill="#0081FB" d="M400,75C221.6,75,75,201.6,75,380c0,138.6,78.3,251.8,189.6,309v-224l-51.8-51.8l55.2-55.2l52.6,52.6h33.8v109h41.8V411.5h26.6l123,123v153.2C655.2,629.1,725,511.7,725,380C725,201.6,578.4,75,400,75z"/>
  <path fill="#0081FB" d="M328.1,442.9h-34L294,459v131.2c16.2,7.5,33.6,13.2,51.8,16.8V459l-17.7-16.1z"/>
  <path fill="#0081FB" d="M405.8,607.9v-172l-26.6-0.1v171.2c8.8,0.6,17.7,0.9,26.6,0.9z"/>
  <path fill="#0081FB" d="M483.5,593.1v-154l-26.6-26.6l0,168.8C466.2,585.5,475.1,589.5,483.5,593.1z"/>
</svg> 