<svg xmlns="http://www.w3.org/2000/svg" viewBox="0 0 170 170" width="170" height="170">
  <path d="M150.37 130.25c-2.45 5.66-5.35 10.87-8.71 15.66-4.58 6.53-8.33 11.05-11.22 13.56-4.48 4.12-9.28 6.23-14.42 6.35-3.69 0-8.14-1.05-13.32-3.18-5.2-2.12-9.98-3.17-14.34-3.17-4.58 0-9.49 1.05-14.72 3.17-5.24 2.13-9.46 3.24-12.67 3.35-4.9.21-9.79-1.96-14.67-6.5-3.14-2.72-7.06-7.42-11.77-14.1-5.03-7.23-9.17-15.62-12.4-25.2-3.47-10.36-5.21-20.38-5.21-30.07 0-11.13 2.41-20.72 7.23-28.77 3.79-6.43 8.81-11.48 15.09-15.16 6.27-3.68 13.06-5.57 20.34-5.77 4 0 9.24 1.23 15.75 3.66 6.48 2.43 10.65 3.67 12.49 3.67 1.37 0 6.01-1.44 13.87-4.3 7.44-2.65 13.69-3.75 18.8-3.33 13.91 1.12 24.34 6.6 31.24 16.48-12.43 7.53-18.57 18.08-18.42 31.6.14 10.55 3.93 19.3 11.35 26.23 3.38 3.21 7.14 5.68 11.33 7.44-.91 2.61-1.86 5.11-2.86 7.51zM119.11 7.24c0 8.28-3.03 16-9.08 23.17-7.3 8.51-16.13 13.44-25.67 12.65-.12-1.04-.19-2.13-.19-3.27 0-8.3 3.61-17.18 10.02-24.54 3.2-3.72 7.27-6.8 12.22-9.27 4.95-2.44 9.63-3.78 14.03-4.01.13 1.74.19 3.31.19 4.7l.48.57z" fill="#222"/>
</svg> 