<?xml version="1.0" encoding="UTF-8" standalone="no"?>
<!-- Created with Inkscape (http://www.inkscape.org/) -->

<svg
   version="1.1"
   id="svg1"
   width="302.39999"
   height="113.28"
   viewBox="0 0 302.39999 113.28"
   sodipodi:docname="president.png"
   xmlns:inkscape="http://www.inkscape.org/namespaces/inkscape"
   xmlns:sodipodi="http://sodipodi.sourceforge.net/DTD/sodipodi-0.dtd"
   xmlns="http://www.w3.org/2000/svg"
   xmlns:svg="http://www.w3.org/2000/svg">
  <defs
     id="defs1" />
  <sodipodi:namedview
     id="namedview1"
     pagecolor="#ffffff"
     bordercolor="#000000"
     borderopacity="0.25"
     inkscape:showpageshadow="2"
     inkscape:pageopacity="0.0"
     inkscape:pagecheckerboard="0"
     inkscape:deskcolor="#d1d1d1">
    <inkscape:page
       x="0"
       y="0"
       width="302.39999"
       height="113.28"
       id="page2"
       margin="0"
       bleed="0" />
  </sodipodi:namedview>
  <g
     inkscape:groupmode="layer"
     inkscape:label="Image"
     id="g1">
    <g
       id="g2">
      <path
         style="fill:#b9b9b9;fill-opacity:1"
         d="m 51.570525,71.679999 c 0,-0.44 0.07263,-0.62 0.161404,-0.4 0.08877,0.22 0.08877,0.58 0,0.8 -0.08877,0.22 -0.161404,0.04 -0.161404,-0.4 z M 213.78526,66.693333 c 0.0154,-0.372782 0.0912,-0.448608 0.19333,-0.193334 0.0924,0.231 0.0811,0.507 -0.0253,0.613334 -0.10633,0.106333 -0.18197,-0.08267 -0.16807,-0.42 z m -132.799998,-0.32 c 0.01535,-0.372782 0.09118,-0.448608 0.193333,-0.193334 0.09244,0.231 0.08107,0.507 -0.02526,0.613334 -0.106334,0.106333 -0.181965,-0.08267 -0.16807,-0.42 z m -26.84288,-0.613334 c 0.0065,-0.528 0.07824,-0.705259 0.159374,-0.393909 0.08113,0.311349 0.0758,0.743349 -0.01186,0.959999 -0.08766,0.216651 -0.154038,-0.03809 -0.147517,-0.56609 z m 50.776798,-0.4 c -0.39804,-0.507537 -0.38672,-0.518856 0.12082,-0.120817 0.53304,0.418038 0.70255,0.680817 0.43918,0.680817 -0.0665,0 -0.31845,-0.252 -0.56,-0.56 z m 95.13134,-1.04 c 0,-0.44 0.0726,-0.62 0.16141,-0.4 0.0888,0.22 0.0888,0.58 0,0.8 -0.0888,0.22 -0.16141,0.04 -0.16141,-0.4 z m 9.86948,0.199183 c 0,-0.06645 0.252,-0.31845 0.56,-0.56 0.50753,-0.398039 0.51885,-0.38672 0.12081,0.120817 -0.41803,0.53304 -0.68081,0.702554 -0.68081,0.439183 z m -29.19627,-4.265506 c 0.39805,-0.07654 0.97405,-0.07364 1.28,0.0065 0.30595,0.08009 -0.0197,0.142718 -0.72373,0.139167 -0.704,-0.0036 -0.95432,-0.06908 -0.55627,-0.145625 z m 37.86153,-0.280343 c 0.0153,-0.372782 0.0912,-0.448608 0.19333,-0.193334 0.0924,0.231 0.0811,0.507 -0.0253,0.613334 -0.10633,0.106333 -0.18197,-0.08267 -0.16807,-0.42 z M 177.84,58.98807 c 0.22,-0.08877 0.58,-0.08877 0.8,0 0.22,0.08877 0.04,0.161403 -0.4,0.161403 -0.44,0 -0.62,-0.07263 -0.4,-0.161403 z m 9.28,-0.32 c 0.22,-0.08877 0.58,-0.08877 0.8,0 0.22,0.08877 0.04,0.161403 -0.4,0.161403 -0.44,0 -0.62,-0.07263 -0.4,-0.161403 z m 8,-0.32 c 0.22,-0.08877 0.58,-0.08877 0.8,0 0.22,0.08877 0.04,0.161403 -0.4,0.161403 -0.44,0 -0.62,-0.07263 -0.4,-0.161403 z M 51.967165,51.839999 c 0,-2.552 0.0497,-3.596 0.110436,-2.32 0.06074,1.276 0.06074,3.364 0,4.64 -0.06074,1.276 -0.110436,0.232 -0.110436,-2.32 z m 169.215215,-0.8 c 0.007,-0.528 0.0782,-0.705259 0.15937,-0.393909 0.0811,0.311349 0.0758,0.743349 -0.0118,0.96 -0.0877,0.21665 -0.15404,-0.03809 -0.14752,-0.566091 z m -30.43712,-2.906666 c 0.0154,-0.372782 0.0912,-0.448608 0.19333,-0.193334 0.0924,0.231 0.0811,0.507 -0.0253,0.613334 -0.10633,0.106333 -0.18197,-0.08267 -0.16807,-0.42 z M 97.010524,45.76 c 0,-0.44 0.07263,-0.62 0.161404,-0.4 0.08877,0.22 0.08877,0.58 0,0.8 -0.08877,0.22 -0.161404,0.04 -0.161404,-0.4 z m 96.294736,-8.186667 c 0.0153,-0.372782 0.0912,-0.448608 0.19333,-0.193333 0.0924,0.231 0.0811,0.507 -0.0253,0.613333 -0.10633,0.106333 -0.18197,-0.08267 -0.16807,-0.42 z m -141.759998,-0.32 c 0.01535,-0.372782 0.09118,-0.448608 0.193333,-0.193333 0.09244,0.231 0.08107,0.507 -0.02526,0.613333 -0.106333,0.106333 -0.181965,-0.08267 -0.16807,-0.42 z M 181.84,20.259416 c 0.308,-0.08049 0.812,-0.08049 1.12,0 0.308,0.08049 0.056,0.146343 -0.56,0.146343 -0.616,0 -0.868,-0.06585 -0.56,-0.146343 z"
         id="path7" />
      <path
         style="fill:#a3a3a3;fill-opacity:1"
         d="m 189.14526,76.613333 c 0.0153,-0.372782 0.0912,-0.448608 0.19333,-0.193334 0.0924,0.231 0.0811,0.507 -0.0253,0.613334 -0.10633,0.106333 -0.18197,-0.08267 -0.16807,-0.42 z m -135.359998,-1.28 c 0.01535,-0.372782 0.09118,-0.448608 0.193333,-0.193334 0.09244,0.231 0.08107,0.507 -0.02526,0.613334 -0.106333,0.106333 -0.181965,-0.08267 -0.16807,-0.42 z m -2.214737,-2.373334 c 0,-0.44 0.07263,-0.62 0.161404,-0.4 0.08877,0.22 0.08877,0.58 0,0.8 -0.08877,0.22 -0.161404,0.04 -0.161404,-0.4 z m 12.429474,-5.880817 c 0,-0.06645 0.252,-0.31845 0.56,-0.56 0.507537,-0.398039 0.518856,-0.386721 0.120817,0.120817 -0.418038,0.53304 -0.680817,0.702554 -0.680817,0.439183 z m 16.985263,-1.665849 c 0.01535,-0.372782 0.09118,-0.448608 0.193333,-0.193334 0.09244,0.231 0.08107,0.507 -0.02526,0.613334 -0.106334,0.106333 -0.181965,-0.08267 -0.16807,-0.42 z m -26.84288,-1.253334 c 0.0065,-0.528 0.07824,-0.705259 0.159374,-0.393909 0.08113,0.311349 0.0758,0.743349 -0.01186,0.96 -0.08766,0.21665 -0.154038,-0.03809 -0.147517,-0.566091 z M 113.92,64.839182 c 0,-0.06645 0.252,-0.31845 0.56,-0.56 0.50754,-0.398039 0.51885,-0.38672 0.12082,0.120817 -0.41804,0.53304 -0.68082,0.702554 -0.68082,0.439183 z M 87.410525,63.999999 c 0,-0.44 0.07263,-0.62 0.161403,-0.4 0.08877,0.22 0.08877,0.58 0,0.8 -0.08877,0.22 -0.161403,0.04 -0.161403,-0.4 z M 76.185262,63.173333 c 0.01535,-0.372782 0.09118,-0.448608 0.193333,-0.193334 0.09244,0.231 0.08107,0.507 -0.02526,0.613334 -0.106334,0.106333 -0.181965,-0.08267 -0.16807,-0.42 z M 205.81052,62.079999 c 0,-0.44 0.0726,-0.62 0.16141,-0.4 0.0888,0.22 0.0888,0.58 0,0.8 -0.0888,0.22 -0.16141,0.04 -0.16141,-0.4 z m 12.77474,-1.146666 c 0.0153,-0.372782 0.0912,-0.448608 0.19333,-0.193334 0.0924,0.231 0.0811,0.507 -0.0253,0.613334 -0.10633,0.106333 -0.18197,-0.08267 -0.16807,-0.42 z m 2.24,-1.6 c 0.0154,-0.372782 0.0912,-0.448608 0.19333,-0.193334 0.0924,0.231 0.0811,0.507 -0.0253,0.613334 -0.10633,0.106333 -0.18197,-0.08267 -0.16807,-0.42 z M 179.14,58.981403 c 0.231,-0.09244 0.507,-0.08107 0.61333,0.02526 0.10633,0.106333 -0.0827,0.181965 -0.42,0.16807 -0.37278,-0.01535 -0.44861,-0.09118 -0.19333,-0.193333 z M 51.927155,57.599999 c 0,-0.792 0.06241,-1.116 0.138679,-0.72 0.07627,0.396 0.07627,1.044 0,1.44 -0.07627,0.396 -0.138679,0.072 -0.138679,-0.72 z M 188.4,58.66807 c 0.22,-0.08877 0.58,-0.08877 0.8,0 0.22,0.08877 0.04,0.161403 -0.4,0.161403 -0.44,0 -0.62,-0.07263 -0.4,-0.161403 z m 4.58526,-4.134737 c 0.0153,-0.372782 0.0912,-0.448608 0.19333,-0.193334 0.0924,0.231 0.0811,0.507 -0.0253,0.613334 -0.10633,0.106333 -0.18197,-0.08267 -0.16807,-0.42 z M 216.24,53.534165 c 0.396,-0.07627 1.044,-0.07627 1.44,0 0.396,0.07627 0.072,0.138678 -0.72,0.138678 -0.792,0 -1.116,-0.0624 -0.72,-0.138678 z m 9.62,0.0072 c 0.231,-0.09244 0.507,-0.08107 0.61333,0.02526 0.10633,0.106333 -0.0827,0.181965 -0.42,0.16807 -0.37278,-0.01535 -0.44861,-0.09118 -0.19333,-0.193333 z m -35.11474,-4.44807 c 0.0154,-0.372782 0.0912,-0.448608 0.19333,-0.193334 0.0924,0.231 0.0811,0.507 -0.0253,0.613334 -0.10633,0.106333 -0.18197,-0.08267 -0.16807,-0.42 z m 2.59712,-0.933334 c 0.007,-0.528 0.0782,-0.705259 0.15937,-0.393909 0.0811,0.311349 0.0758,0.743349 -0.0118,0.96 -0.0877,0.21665 -0.15404,-0.03809 -0.14752,-0.566091 z m -141.42814,-1.76 c 0,-0.615999 0.06585,-0.867999 0.146343,-0.559999 0.08049,0.308 0.08049,0.811999 0,1.119999 -0.08049,0.308 -0.146343,0.056 -0.146343,-0.56 z M 97.010524,44.48 c 0,-0.44 0.07263,-0.62 0.161404,-0.4 0.08877,0.22 0.08877,0.58 0,0.8 -0.08877,0.22 -0.161404,0.04 -0.161404,-0.4 z M 54.105262,41.733333 c 0.01535,-0.372782 0.09118,-0.448608 0.193333,-0.193333 0.09244,0.231 0.08107,0.507 -0.02526,0.613333 -0.106333,0.106333 -0.181965,-0.08267 -0.16807,-0.42 z m 139.199998,-3.2 c 0.0153,-0.372782 0.0912,-0.448608 0.19333,-0.193333 0.0924,0.231 0.0811,0.507 -0.0253,0.613333 -0.10633,0.106333 -0.18197,-0.08267 -0.16807,-0.42 z"
         id="path6" />
      <path
         style="fill:#8c8c8c;fill-opacity:1"
         d="m 53.785262,74.373333 c 0.01535,-0.372782 0.09118,-0.448608 0.193333,-0.193334 0.09244,0.231 0.08107,0.507 -0.02526,0.613334 -0.106333,0.106333 -0.181965,-0.08267 -0.16807,-0.42 z m -2.24,-0.32 c 0.01535,-0.372782 0.09118,-0.448608 0.193333,-0.193334 0.09244,0.231 0.08107,0.507 -0.02526,0.613334 -0.106333,0.106333 -0.181965,-0.08267 -0.16807,-0.42 z m 55.613918,-9.013334 c -0.39804,-0.507537 -0.38672,-0.518856 0.12082,-0.120817 0.53304,0.418038 0.70255,0.680817 0.43918,0.680817 -0.0664,0 -0.31845,-0.252 -0.56,-0.56 z m -52.998482,-2.8 c 0.0036,-0.704 0.06908,-0.954321 0.145624,-0.556269 0.07654,0.398052 0.07364,0.974052 -0.0065,1.28 -0.08009,0.305948 -0.142719,-0.01973 -0.139167,-0.723731 z m -2.229175,-1.92 c 0.0024,-0.88 0.06455,-1.20202 0.138102,-0.7156 0.07355,0.48642 0.07159,1.20642 -0.0044,1.6 -0.07596,0.39358 -0.136136,-0.0044 -0.133734,-0.8844 z m 35.773738,-0.02667 c 0.01536,-0.372782 0.09118,-0.448608 0.193334,-0.193334 0.09244,0.231 0.08107,0.507 -0.02526,0.613334 -0.106334,0.106333 -0.181965,-0.08267 -0.168071,-0.42 z M 197.06,58.341403 c 0.231,-0.09244 0.507,-0.08107 0.61333,0.02526 0.10633,0.106333 -0.0827,0.181965 -0.42,0.16807 -0.37278,-0.01535 -0.44861,-0.09118 -0.19333,-0.193333 z m -6.63474,-1.88807 c 0.0153,-0.372782 0.0912,-0.448608 0.19333,-0.193334 0.0924,0.231 0.0811,0.507 -0.0253,0.613334 -0.10633,0.106333 -0.18197,-0.08267 -0.16807,-0.42 z m 32.54047,-2.925248 c 0.57515,-0.07122 1.43915,-0.06975 1.92,0.0033 0.48084,0.07302 0.0103,0.131286 -1.04573,0.12949 -1.056,-0.0018 -1.44943,-0.06154 -0.87427,-0.132756 z m -29.62335,-6.968086 c 0.007,-0.527999 0.0782,-0.705259 0.15937,-0.393909 0.0811,0.311349 0.0758,0.743349 -0.0118,0.96 -0.0877,0.21665 -0.15404,-0.03809 -0.14752,-0.566091 z M 51.902383,44.64 c 0.0065,-0.528 0.07824,-0.70526 0.159373,-0.39391 0.08113,0.311349 0.0758,0.743349 -0.01186,0.96 C 51.962243,45.42274 51.895861,45.168 51.902383,44.64 Z m 2.228142,-1.76 c 0,-0.44 0.07263,-0.62 0.161404,-0.4 0.08877,0.22 0.08877,0.58 0,0.8 -0.08877,0.22 -0.161404,0.04 -0.161404,-0.4 z m 139.199995,-3.2 c 0,-0.44 0.0726,-0.62 0.16141,-0.4 0.0888,0.22 0.0888,0.58 0,0.8 -0.0888,0.22 -0.16141,0.04 -0.16141,-0.4 z m -2.58526,-2.746667 c 0.0154,-0.372782 0.0912,-0.448608 0.19333,-0.193333 0.0924,0.231 0.0811,0.507 -0.0253,0.613333 -0.10633,0.106333 -0.18197,-0.08267 -0.16807,-0.42 z M 181.38,18.981403 c 0.231,-0.09244 0.507,-0.08107 0.61333,0.02526 0.10633,0.106334 -0.0827,0.181965 -0.42,0.168071 -0.37278,-0.01535 -0.44861,-0.09118 -0.19333,-0.193334 z m 1.6,0 c 0.231,-0.09244 0.507,-0.08107 0.61333,0.02526 0.10633,0.106334 -0.0827,0.181965 -0.42,0.168071 -0.37278,-0.01535 -0.44861,-0.09118 -0.19333,-0.193334 z"
         id="path5" />
      <path
         style="fill:#767676;fill-opacity:1"
         d="m 53.465262,79.813332 c 0.01535,-0.372781 0.09118,-0.448607 0.193333,-0.193333 0.09244,0.231 0.08107,0.507 -0.02526,0.613333 -0.106333,0.106334 -0.181965,-0.08267 -0.16807,-0.42 z m -1.92,-4.799999 c 0.01535,-0.372782 0.09118,-0.448608 0.193333,-0.193334 0.09244,0.231 0.08107,0.507 -0.02526,0.613334 -0.106333,0.106333 -0.181965,-0.08267 -0.16807,-0.42 z m 2.24,-1.6 c 0.01535,-0.372782 0.09118,-0.448608 0.193333,-0.193334 0.09244,0.231 0.08107,0.507 -0.02526,0.613334 -0.106333,0.106333 -0.181965,-0.08267 -0.16807,-0.42 z m 191.359998,-7.04 c 0.0153,-0.372782 0.0912,-0.448608 0.19333,-0.193334 0.0924,0.231 0.0811,0.507 -0.0253,0.613334 -0.10633,0.106333 -0.18197,-0.08267 -0.16807,-0.42 z M 51.920698,62.879999 c 0.0036,-0.704 0.06908,-0.954321 0.145624,-0.556269 0.07654,0.398052 0.07364,0.974052 -0.0065,1.28 -0.08009,0.305948 -0.142719,-0.01973 -0.139167,-0.723731 z M 227.84,63.879182 c 0,-0.06645 0.252,-0.31845 0.56,-0.56 0.50753,-0.398039 0.51885,-0.38672 0.12081,0.120817 -0.41804,0.53304 -0.68081,0.702554 -0.68081,0.439183 z m 19.57052,-0.519183 c 0,-0.44 0.0726,-0.62 0.1614,-0.4 0.0888,0.22 0.0888,0.58 0,0.8 -0.0888,0.22 -0.1614,0.04 -0.1614,-0.4 z m -28.82526,-0.186666 c 0.0153,-0.372782 0.0912,-0.448608 0.19333,-0.193334 0.0924,0.231 0.0811,0.507 -0.0253,0.613334 -0.10633,0.106333 -0.18197,-0.08267 -0.16807,-0.42 z m -142.399998,-1.6 c 0.01535,-0.372782 0.09118,-0.448608 0.193333,-0.193334 0.09244,0.231 0.08107,0.507 -0.02526,0.613334 -0.106334,0.106333 -0.181965,-0.08267 -0.16807,-0.42 z M 54.15424,60.159999 c 0,-0.616 0.06585,-0.868 0.146343,-0.56 0.08049,0.308 0.08049,0.812 0,1.12 -0.08049,0.308 -0.146343,0.056 -0.146343,-0.56 z M 180.74,58.981403 c 0.231,-0.09244 0.507,-0.08107 0.61333,0.02526 0.10633,0.106333 -0.0827,0.181965 -0.42,0.16807 -0.37278,-0.01535 -0.44861,-0.09118 -0.19333,-0.193333 z M 198,58.34807 c 0.22,-0.08877 0.58,-0.08877 0.8,0 0.22,0.08877 0.04,0.161403 -0.4,0.161403 -0.44,0 -0.62,-0.07263 -0.4,-0.161403 z m 22.82526,-0.614737 c 0.0154,-0.372782 0.0912,-0.448608 0.19333,-0.193334 0.0924,0.231 0.0811,0.507 -0.0253,0.613334 -0.10633,0.106333 -0.18197,-0.08267 -0.16807,-0.42 z M 234.5,58.021403 c 0.231,-0.09244 0.507,-0.08107 0.61333,0.02526 0.10633,0.106333 -0.0827,0.181965 -0.42,0.16807 -0.37278,-0.01535 -0.44861,-0.09118 -0.19333,-0.193333 z m -43.75474,-7.32807 c 0.0154,-0.372782 0.0912,-0.448608 0.19333,-0.193334 0.0924,0.231 0.0811,0.507 -0.0253,0.613334 -0.10633,0.106333 -0.18197,-0.08267 -0.16807,-0.42 z M 148.42,50.021403 c 0.231,-0.09244 0.507,-0.08107 0.61333,0.02526 0.10633,0.106333 -0.0827,0.181965 -0.42,0.16807 -0.37278,-0.01535 -0.44861,-0.09118 -0.19333,-0.193333 z m 3.52,0 c 0.231,-0.09244 0.507,-0.08107 0.61333,0.02526 0.10633,0.106333 -0.0827,0.181965 -0.42,0.16807 -0.37278,-0.01535 -0.44861,-0.09118 -0.19333,-0.193333 z m -1.62,-0.967238 c 0.396,-0.07627 1.044,-0.07627 1.44,0 0.396,0.07627 0.072,0.138678 -0.72,0.138678 -0.792,0 -1.116,-0.06241 -0.72,-0.138678 z M 193.35424,44.8 c 0,-0.616 0.0658,-0.868 0.14634,-0.56 0.0805,0.308 0.0805,0.812 0,1.12 -0.0805,0.308 -0.14634,0.056 -0.14634,-0.56 z M 54.130525,44.16 c 0,-0.44 0.07263,-0.62 0.161404,-0.4 0.08877,0.22 0.08877,0.58 0,0.8 -0.08877,0.22 -0.161404,0.04 -0.161404,-0.4 z m 44.823714,-0.64 c 0,-0.616 0.06585,-0.868 0.146343,-0.56 0.08049,0.308 0.08049,0.812 0,1.12 -0.08049,0.308 -0.146343,0.056 -0.146343,-0.56 z M 51.902383,43.04 c 0.0065,-0.528 0.07824,-0.70526 0.159373,-0.39391 0.08113,0.311349 0.0758,0.743349 -0.01186,0.96 C 51.962243,43.82274 51.895861,43.568 51.902383,43.04 Z M 193.37152,41.76 c 0.002,-0.88 0.0645,-1.20202 0.1381,-0.715601 0.0736,0.48642 0.0716,1.20642 -0.004,1.6 -0.0759,0.39358 -0.13613,-0.0044 -0.13373,-0.884399 z M 144.16,35.84 c 0.31855,-0.352 0.65119,-0.64 0.73919,-0.64 0.088,0 -0.10064,0.288 -0.41919,0.64 -0.31856,0.352 -0.65119,0.64 -0.73919,0.64 -0.088,0 0.10063,-0.288 0.41919,-0.64 z M 51.545262,35.013333 c 0.01535,-0.372782 0.09118,-0.448608 0.193333,-0.193333 0.09244,0.231 0.08107,0.507 -0.02526,0.613333 -0.106333,0.106333 -0.181965,-0.08267 -0.16807,-0.42 z M 109.07918,33.68 c -0.39804,-0.507538 -0.38672,-0.518857 0.12082,-0.120818 0.53304,0.418038 0.70255,0.680818 0.43918,0.680818 -0.0664,0 -0.31845,-0.252 -0.56,-0.56 z M 105.84,32.42807 c 0.22,-0.08877 0.58,-0.08877 0.8,0 0.22,0.08877 0.04,0.161403 -0.4,0.161403 -0.44,0 -0.62,-0.07263 -0.4,-0.161403 z"
         id="path4" />
      <path
         style="fill:#606060;fill-opacity:1"
         d="m 53.810525,72.319999 c 0,-0.44 0.07263,-0.62 0.161404,-0.4 0.08877,0.22 0.08877,0.58 0,0.8 -0.08877,0.22 -0.161404,0.04 -0.161404,-0.4 z m 11.629474,-4.16 c 0.318555,-0.352 0.651192,-0.64 0.739192,-0.64 0.088,0 -0.100637,0.288 -0.419192,0.64 -0.318556,0.352 -0.651192,0.64 -0.739192,0.64 -0.088,0 0.100636,-0.288 0.419192,-0.64 z m 55.360001,-1.6 c 0.31855,-0.352 0.65119,-0.64 0.73919,-0.64 0.088,0 -0.10064,0.288 -0.41919,0.64 -0.31856,0.352 -0.65119,0.64 -0.73919,0.64 -0.088,0 0.10063,-0.288 0.41919,-0.64 z m 126.26526,0.133334 c 0.0154,-0.372782 0.0912,-0.448608 0.19333,-0.193334 0.0924,0.231 0.0811,0.507 -0.0253,0.613334 -0.10633,0.106333 -0.18197,-0.08267 -0.16807,-0.42 z M 79.519998,65.599999 c 0.318556,-0.352 0.651192,-0.64 0.739192,-0.64 0.088,0 -0.100636,0.288 -0.419192,0.64 -0.318555,0.352 -0.651192,0.64 -0.739192,0.64 -0.088,0 0.100637,-0.288 0.419192,-0.64 z M 113.92,66.119182 c 0,-0.06645 0.252,-0.31845 0.56,-0.56 0.50754,-0.398039 0.51885,-0.386721 0.12082,0.120817 -0.41804,0.53304 -0.68082,0.702554 -0.68082,0.439183 z M 51.902383,64.799999 c 0.0065,-0.528 0.07824,-0.705259 0.159373,-0.393909 0.08113,0.311349 0.0758,0.743349 -0.01186,0.96 -0.08766,0.21665 -0.154038,-0.03809 -0.147516,-0.566091 z m 37.759999,-0.96 c 0.0065,-0.528 0.07824,-0.705259 0.159373,-0.393909 0.08113,0.311349 0.0758,0.743349 -0.01186,0.96 -0.08765,0.21665 -0.154038,-0.03809 -0.147516,-0.566091 z m -15.691857,-0.8 c 0,-0.44 0.07263,-0.62 0.161403,-0.4 0.08877,0.22 0.08877,0.58 0,0.8 -0.08877,0.22 -0.161403,0.04 -0.161403,-0.4 z m 7.051857,-2.08 c 0.0065,-0.528 0.07824,-0.705259 0.159373,-0.393909 0.08113,0.311349 0.0758,0.743349 -0.01186,0.96 -0.08765,0.21665 -0.154038,-0.03809 -0.147516,-0.566091 z M 187.14,59.941403 c 0.231,-0.09244 0.507,-0.08107 0.61333,0.02526 0.10633,0.106333 -0.0827,0.181965 -0.42,0.16807 -0.37278,-0.01535 -0.44861,-0.09118 -0.19333,-0.193333 z m 42.94,0.09778 c 0,-0.06645 0.252,-0.31845 0.56,-0.56 0.50753,-0.398039 0.51885,-0.38672 0.12081,0.120817 -0.41804,0.53304 -0.68081,0.702554 -0.68081,0.439183 z M 244.34057,58.9738 c -0.17366,-0.456063 -0.1369,-0.492819 0.17913,-0.179134 0.2187,0.217067 0.31702,0.475277 0.21849,0.573801 -0.0985,0.09852 -0.27745,-0.07908 -0.39762,-0.394667 z M 54.160698,58.079999 c 0.0036,-0.704 0.06908,-0.954321 0.145624,-0.556269 0.07654,0.398052 0.07364,0.974052 -0.0065,1.28 -0.08009,0.305948 -0.142719,-0.01973 -0.139167,-0.723731 z M 181.7,58.981403 c 0.231,-0.09244 0.507,-0.08107 0.61333,0.02526 0.10633,0.106333 -0.0827,0.181965 -0.42,0.16807 -0.37278,-0.01535 -0.44861,-0.09118 -0.19333,-0.193333 z m 39.12526,-2.20807 c 0.0154,-0.372782 0.0912,-0.448608 0.19333,-0.193334 0.0924,0.231 0.0811,0.507 -0.0253,0.613334 -0.10633,0.106333 -0.18197,-0.08267 -0.16807,-0.42 z m -1.89474,-1.733334 c 0,-0.44 0.0726,-0.62 0.16141,-0.4 0.0888,0.22 0.0888,0.58 0,0.8 -0.0888,0.22 -0.16141,0.04 -0.16141,-0.4 z m -2.52443,-2.461757 c 0.31135,-0.08113 0.74335,-0.0758 0.96,0.01186 0.21665,0.08765 -0.0381,0.154037 -0.56609,0.147516 -0.528,-0.0065 -0.70526,-0.07824 -0.39391,-0.159374 z M 223.12,52.56689 c 0.66,-0.06904 1.74,-0.06904 2.4,0 0.66,0.06904 0.12,0.125523 -1.2,0.125523 -1.32,0 -1.86,-0.05649 -1.2,-0.125523 z m -73.44,-2.552725 c 0.396,-0.07627 1.044,-0.07627 1.44,0 0.396,0.07627 0.072,0.138678 -0.72,0.138678 -0.792,0 -1.116,-0.0624 -0.72,-0.138678 z m -1.11391,-0.955923 c 0.31135,-0.08113 0.74335,-0.0758 0.96,0.01186 0.21665,0.08766 -0.0381,0.154037 -0.56609,0.147516 -0.528,-0.0065 -0.70526,-0.07824 -0.39391,-0.159374 z M 54.15424,45.76 c 0,-0.616 0.06585,-0.868 0.146343,-0.56 0.08049,0.308 0.08049,0.812 0,1.12 -0.08049,0.307999 -0.146343,0.056 -0.146343,-0.56 z m 44.751021,-0.826667 c 0.01535,-0.372782 0.09118,-0.448608 0.193333,-0.193333 0.09244,0.231 0.08107,0.507 -0.02526,0.613333 -0.106333,0.106333 -0.181965,-0.08267 -0.16807,-0.42 z m 39.999999,-0.32 c 0.0154,-0.372782 0.0912,-0.448608 0.19333,-0.193333 0.0924,0.231 0.0811,0.507 -0.0253,0.613333 -0.10633,0.106333 -0.18196,-0.08267 -0.16807,-0.42 z M 111.76715,43.2 c 0,-0.792 0.0624,-1.116 0.13868,-0.72 0.0763,0.396 0.0763,1.044 0,1.44 -0.0763,0.396 -0.13868,0.072 -0.13868,-0.72 z M 51.865262,41.733333 c 0.01535,-0.372782 0.09118,-0.448608 0.193333,-0.193333 0.09244,0.231 0.08107,0.507 -0.02526,0.613333 -0.106333,0.106333 -0.181965,-0.08267 -0.16807,-0.42 z M 144.64,37.959182 c 0,-0.06645 0.252,-0.31845 0.56,-0.56 0.50753,-0.398039 0.51885,-0.38672 0.12081,0.120818 -0.41803,0.533039 -0.68081,0.702553 -0.68081,0.439182 z"
         id="path3" />
      <path
         style="fill:#494949;fill-opacity:1"
         d="m 51.105282,85.014734 c -0.08975,-0.233896 -0.03794,-1.493896 0.115135,-2.8 1.03531,-8.833527 1.133018,-39.869115 0.167659,-53.254734 -0.253859,-3.52 -0.343323,-6.521505 -0.19881,-6.67001 0.491369,-0.504941 1.403909,-0.05297 1.634582,0.809583 0.260226,0.973062 1.136877,15.086565 1.417476,22.820427 0.1918,5.286388 -0.327358,30.629263 -0.676837,33.039999 -0.312682,2.156908 0.448361,1.697343 2.527897,-1.526502 5.382615,-8.344511 11.246049,-13.987071 16.319265,-15.704524 1.351502,-0.457529 1.672707,-0.721757 1.962196,-1.614131 0.355726,-1.096556 1.355252,-1.612056 1.783174,-0.919663 0.128541,0.207983 0.168133,1.338152 0.08798,2.511486 -0.190096,2.782814 0.228153,3.893334 1.466323,3.893334 0.691193,0 1.27076,-0.372756 2.277195,-1.464609 1.301355,-1.411803 1.34609,-1.530064 1.240755,-3.28 -0.105472,-1.752223 -0.08144,-1.815391 0.690725,-1.815391 0.712408,0 0.810774,0.148907 0.8984,1.36 0.110431,1.526299 0.406014,1.69818 1.1006,0.64 1.66499,-2.536558 4.152024,-3.730476 5.411884,-2.598014 0.599324,0.538721 0.649377,0.856268 0.504819,3.202662 -0.08826,1.432557 -0.09046,2.970882 -0.0049,3.418502 0.379741,1.986486 2.004676,0.972497 3.743126,-2.335778 1.612441,-3.068481 3.408497,-4.133152 5.992887,-3.552478 0.678247,0.152392 1.233177,0.179351 1.233177,0.05991 0,-0.119442 -0.51887,-1.489852 -1.153043,-3.045355 C 97.46182,50.82975 96.758766,44.912195 97.750866,40.230274 99.518918,31.88648 107.59802,28.47585 111.60278,34.382627 c 1.66459,2.455177 2.1417,4.530153 2.13778,9.297374 -0.005,6.394197 -1.54651,10.677651 -5.91004,16.425066 l -2.25192,2.966104 0.65452,0.91919 c 0.35999,0.505555 1.09585,1.290542 1.63525,1.744415 2.27331,1.912863 6.36091,0.314625 7.73523,-3.024446 0.64197,-1.559747 2.20066,-3.032095 3.89486,-3.679115 1.30623,-0.498853 1.54552,-0.502757 2.88299,-0.04703 1.25228,0.426695 1.45854,0.431841 1.45854,0.0364 0,-0.507746 1.44509,-0.650112 1.74088,-0.171507 0.0983,0.158988 0.052,1.202988 -0.10271,2.319999 -0.39538,2.853911 0.0737,4.235452 1.48415,4.371379 0.89393,0.08615 1.32149,-0.164415 3.00326,-1.76 1.66074,-1.57562 1.88262,-1.7071 1.44931,-0.858809 -1.30922,2.563004 -3.23009,3.958361 -5.44916,3.958361 -1.35307,0 -2.33284,-0.793102 -2.66952,-2.160908 l -0.25621,-1.040908 -1.12454,1.520908 c -0.61849,0.8365 -1.64532,1.800847 -2.28184,2.142994 -1.02992,0.553617 -1.30643,0.577405 -2.51227,0.216127 -1.02283,-0.306448 -1.44158,-0.635427 -1.70832,-1.342086 -0.43193,-1.14433 -0.53993,-1.151856 -1.51725,-0.105722 -2.45425,2.627057 -5.44597,2.322955 -8.82718,-0.897266 l -1.0114,-0.963242 -1.3886,0.951261 c -2.56893,1.759843 -4.188944,2.431626 -5.922174,2.455789 -1.328798,0.01853 -1.815889,-0.129316 -2.48,-0.752727 -0.454535,-0.426679 -0.826428,-1.091732 -0.826428,-1.477895 0,-0.616636 -0.170186,-0.531928 -1.397895,0.695781 -1.572548,1.572548 -2.633302,1.785662 -3.592509,0.721766 -0.51624,-0.572584 -0.609596,-1.180874 -0.609596,-3.972018 0,-1.812739 -0.107117,-3.403598 -0.238038,-3.535243 -0.642064,-0.645613 -2.450083,2.158236 -3.929711,6.094138 -0.604286,1.607439 -0.850953,1.929251 -1.478758,1.929251 -0.689735,0 -0.761462,-0.150624 -0.847675,-1.780103 l -0.09418,-1.780104 -1.540103,1.540104 c -1.283734,1.283733 -1.736696,1.540103 -2.721098,1.540103 -1.671719,0 -2.750434,-1.210609 -2.750434,-3.086727 0,-0.7663 -0.07663,-1.393273 -0.170278,-1.393273 -0.576558,0 -2.755077,1.164534 -4.476555,2.392956 -4.188584,2.988911 -8.159905,7.703867 -13.100503,15.553591 -1.375485,2.185399 -2.719351,4.225453 -2.986369,4.533453 -0.570521,0.658085 -2.165831,0.747607 -2.401012,0.134735 z M 99.861991,65.316613 c 1.131899,-0.683863 2.107639,-1.49183 2.168299,-1.795482 0.12652,-0.63328 -1.98342,-2.957713 -3.07156,-3.383816 -1.566423,-0.613391 -3.366058,1.174917 -3.778601,3.754819 -0.471631,2.949421 1.277159,3.481498 4.681862,1.424479 z m 19.823619,0.59939 c 1.00294,-0.714153 2.74129,-3.354299 3.06944,-4.661735 0.37785,-1.50546 -1.657,-1.95839 -3.2321,-0.71942 -1.62534,1.278492 -2.65217,4.687938 -1.69895,5.641151 0.52648,0.52648 0.81338,0.486411 1.86161,-0.259996 z m -13.29996,-6.730818 c 3.07957,-4.183293 4.58067,-7.93209 5.2659,-13.150833 0.7006,-5.335721 -0.53059,-10.968189 -2.77083,-12.676103 -3.09639,-2.360626 -7.59611,0.189543 -9.144156,5.18236 -1.159278,3.738939 -0.961047,8.098746 0.615606,13.539455 1.16296,4.01311 3.55175,9.039935 4.29587,9.039935 0.1723,0 0.95423,-0.870666 1.73761,-1.934814 z m 83.02467,20.414814 c -0.0691,-0.931845 0.0727,-3.728402 0.55887,-11.018136 0.28383,-4.255975 0.43276,-7.955206 0.33095,-8.220514 -0.15919,-0.414863 -0.98641,-0.45602 -5.91038,-0.29406 -5.63954,0.185497 -7.80607,0.02101 -7.23571,-0.549342 0.15764,-0.157643 3.14262,-0.388244 6.63328,-0.512445 l 6.34665,-0.225821 0.34109,-0.829841 c 0.21855,-0.531698 0.35256,-5.141167 0.37301,-12.82984 0.0271,-10.171034 -0.0546,-12.487725 -0.53547,-15.2 -1.06943,-6.03145 -2.10164,-8.068787 -4.66178,-9.201257 -1.95216,-0.863532 -5.59299,-0.627035 -10.6879,0.694254 -14.46629,3.751613 -29.56922,13.185928 -33.08479,20.667003 -1.35716,2.887998 -0.89635,4.392715 1.757,5.737269 1.88053,0.952939 4.55983,1.46273 7.68763,1.46273 1.7762,0 2.31144,0.09379 2.0466,0.358629 -0.24437,0.244372 -1.66657,0.309467 -4.464,0.20432 -4.74718,-0.178431 -6.5956,-0.725792 -8.48768,-2.513401 -1.09186,-1.031568 -1.21769,-1.314419 -1.21769,-2.73717 0,-2.161534 1.14057,-4.338248 3.75005,-7.156723 7.03896,-7.60273 21.38378,-15.099585 33.68995,-17.606965 4.81793,-0.981653 9.16043,-0.814637 11.29156,0.434284 2.88148,1.688665 4.00235,4.474884 4.90375,12.189667 0.43293,3.705328 0.49339,6.427251 0.33977,15.297011 l -0.18687,10.789651 3.50718,0.09035 c 2.05963,0.05306 3.50949,0.222424 3.51279,0.410348 0.003,0.178046 -1.52346,0.435826 -3.44129,0.581098 -1.89579,0.143604 -3.53788,0.359604 -3.64909,0.48 -0.11121,0.120396 -0.36705,2.652876 -0.56855,5.627734 -0.33878,5.001767 -1.08456,11.849272 -1.47589,13.551168 -0.17656,0.767857 -1.4098,1.037595 -1.46304,0.319999 z m 22.85059,-10.790123 c -1.62712,-0.68377 -1.58725,-2.539983 0.0807,-3.754968 l 0.87154,-0.634878 -0.75242,-1.017704 -0.75242,-1.017703 -0.76229,0.974031 c -0.89573,1.144527 -2.26991,1.921345 -3.39883,1.921345 -0.47574,0 -0.94392,0.260253 -1.14538,0.636688 -0.45226,0.845062 -1.9706,1.603312 -3.2105,1.603312 -1.48367,0 -2.87127,-1.501804 -2.87127,-3.10758 0,-1.499069 1.13731,-3.834745 2.2677,-4.657122 1.28649,-0.935946 3.17931,-1.071288 4.13724,-0.295826 0.69743,0.564577 0.79986,0.912333 0.83421,2.832068 0.0377,2.106572 0.0676,2.185142 0.8,2.099783 0.41846,-0.04877 1.24461,-0.570941 1.83589,-1.160375 1.04006,-1.036829 1.06153,-1.10905 0.65991,-2.219726 -0.36582,-1.011645 -0.34818,-1.222017 0.14851,-1.770845 0.73335,-0.810346 1.86581,-1.07986 2.89433,-0.68882 1.24423,0.473056 1.03107,1.036627 -0.29779,0.78733 -1.03139,-0.193488 -1.12,-0.148337 -1.12,0.570638 0,0.953595 1.81024,3.770475 2.42306,3.770475 0.24352,0 1.22313,-0.382729 2.17691,-0.85051 l 1.73416,-0.850509 0.13684,-3.709491 c 0.0753,-2.040219 0.013,-3.96149 -0.13832,-4.26949 -0.21201,-0.431448 -0.67661,-0.56 -2.02391,-0.56 -0.96181,0 -1.74874,-0.144 -1.74874,-0.32 0,-0.176 0.756,-0.322205 1.68,-0.3249 0.924,-0.0027 1.85077,-0.113489 2.05949,-0.24621 0.20872,-0.132721 0.49672,-1.318516 0.64,-2.6351 0.22784,-2.09362 0.34076,-2.39379 0.90051,-2.39379 0.57661,0 0.64923,0.244415 0.73324,2.467985 l 0.0932,2.467984 1.11606,0.209373 c 0.61383,0.115155 2.47309,0.107632 4.13169,-0.01672 1.6586,-0.12435 3.49042,-0.114127 4.0707,0.02272 l 1.05507,0.24881 -0.96,0.222063 c -0.528,0.122135 -2.688,0.241306 -4.8,0.264825 -2.112,0.02352 -4.04304,0.17129 -4.29119,0.328381 -0.3513,0.222388 -0.48477,1.565289 -0.60286,6.065856 -0.1315,5.011436 -0.0812,5.88787 0.37856,6.58948 0.96669,1.475348 2.71388,0.951273 6.01478,-1.80415 0.94144,-0.78586 1.64043,-1.693397 1.8786,-2.439071 0.77246,-2.418445 2.9038,-3.907536 5.59286,-3.907536 1.77099,0 2.70925,0.444632 2.70925,1.283882 0,0.93519 -1.2643,1.58048 -3.66219,1.869158 -2.30545,0.27755 -2.72495,0.596669 -2.73291,2.07896 -0.006,1.19787 1.83662,3.088 3.01109,3.088 2.17826,0 9.26005,-3.531953 8.53519,-4.256816 -0.19315,-0.193151 -0.35118,-0.876065 -0.35118,-1.517588 0,-1.327277 0.93378,-2.426924 1.78386,-2.100718 0.43269,0.16604 0.4877,0.469208 0.30554,1.683926 l -0.22215,1.481428 1.22637,-0.194971 c 1.90538,-0.302921 2.10696,-0.01675 2.0182,2.86508 -0.1008,3.272877 -0.0926,3.319659 0.5854,3.319659 0.70481,0 2.23295,-1.581769 3.40066,-3.52 1.08016,-1.792896 0.7698,-0.478858 -0.41356,1.750993 -0.94153,1.774167 -2.56904,3.049007 -3.89247,3.049007 -1.43554,0 -1.7015,-0.648487 -1.51196,-3.686639 l 0.16928,-2.713361 h -1.11548 c -0.83511,0 -1.46128,0.304379 -2.49125,1.210999 -2.67519,2.354794 -7.17707,4.158999 -9.28244,3.720093 -1.64399,-0.34272 -2.94587,-1.349506 -3.48392,-2.694211 l -0.50848,-1.27083 -1.31708,1.428859 c -4.3751,4.746424 -8.0649,4.367805 -8.58594,-0.881023 l -0.18458,-1.859487 -1.51652,0.963544 -1.51652,0.963544 0.0765,1.757569 c 0.0533,1.224847 -0.0703,1.904435 -0.40777,2.242113 -0.62466,0.624998 -2.20134,0.884164 -3.0948,0.508707 z m 1.7584,-2.012538 c 0.0763,-0.920346 -0.0178,-1.197339 -0.40686,-1.197339 -0.62245,0 -1.28966,1.368761 -1.01549,2.083244 0.37824,0.985674 1.31553,0.401885 1.42235,-0.885905 z m -9.74247,-0.580564 c 1.05691,-0.831367 1.05295,-1.086054 -0.0368,-2.365144 -0.484,-0.568073 -1.04256,-1.307083 -1.24124,-1.642245 -0.32154,-0.54241 -0.4033,-0.455189 -0.74391,0.793586 -0.38567,1.413995 -0.24511,2.734008 0.37005,3.475238 0.45234,0.545033 0.67059,0.510492 1.65194,-0.261435 z m 1.74968,-3.794388 c 0.15806,-1.079511 -0.21754,-2.262387 -0.71838,-2.262387 -0.67236,0 -0.88507,0.937909 -0.48656,2.145411 0.39459,1.195601 1.03786,1.25805 1.20494,0.116976 z M 235.16747,60.0201 c 0.51023,-0.31534 0.11779,-0.820101 -0.63762,-0.820101 -0.77175,0 -2.264,0.933514 -2.04881,1.281688 0.16042,0.25956 2.04296,-0.0639 2.68643,-0.461587 z M 75.358229,55.677136 c -0.349553,-0.565589 0.182216,-1.597137 0.823334,-1.597137 0.74686,0 0.80612,0.726601 0.115578,1.417143 -0.59146,0.59146 -0.674744,0.607426 -0.938912,0.179994 z"
         id="path2" />
    </g>
  </g>
</svg>
