<?xml version="1.0" encoding="UTF-8" standalone="no"?>
<!-- Created with Inkscape (http://www.inkscape.org/) -->

<svg
   version="1.1"
   id="svg1"
   width="302.39999"
   height="113.28"
   viewBox="0 0 302.39999 113.28"
   sodipodi:docname="director.png"
   xmlns:inkscape="http://www.inkscape.org/namespaces/inkscape"
   xmlns:sodipodi="http://sodipodi.sourceforge.net/DTD/sodipodi-0.dtd"
   xmlns="http://www.w3.org/2000/svg"
   xmlns:svg="http://www.w3.org/2000/svg">
  <defs
     id="defs1" />
  <sodipodi:namedview
     id="namedview1"
     pagecolor="#ffffff"
     bordercolor="#000000"
     borderopacity="0.25"
     inkscape:showpageshadow="2"
     inkscape:pageopacity="0.0"
     inkscape:pagecheckerboard="0"
     inkscape:deskcolor="#d1d1d1">
    <inkscape:page
       x="0"
       y="0"
       width="302.39999"
       height="113.28"
       id="page2"
       margin="0"
       bleed="0" />
  </sodipodi:namedview>
  <g
     inkscape:groupmode="layer"
     inkscape:label="Image"
     id="g1">
    <g
       id="g2">
      <path
         style="fill:#b9b9b9;fill-opacity:1"
         d="m 228.55424,59.839999 c 0,-0.616 0.0659,-0.868 0.14634,-0.56 0.0805,0.308 0.0805,0.812 0,1.12 -0.0805,0.308 -0.14634,0.056 -0.14634,-0.56 z M 30.322738,54.690556 c 0.21544,-0.280193 0.323601,-0.57755 0.240359,-0.660792 -0.08324,-0.08324 0.457817,-0.717993 1.202354,-1.410557 1.265696,-1.177343 1.285753,-1.185025 0.3085,-0.118168 -0.574863,0.627572 -0.96979,1.216455 -0.877617,1.308629 0.09217,0.09217 -0.154812,0.442706 -0.548858,0.77896 -0.435679,0.371781 -0.562941,0.411726 -0.324738,0.101928 z M 147.2,53.319182 c 0,-0.06645 0.252,-0.31845 0.56,-0.56 0.50753,-0.398039 0.51885,-0.38672 0.12081,0.120817 -0.41803,0.53304 -0.68081,0.702554 -0.68081,0.439183 z m 2.56,-2.56 c 0,-0.06645 0.252,-0.31845 0.56,-0.56 0.50753,-0.398039 0.51885,-0.38672 0.12081,0.120817 -0.41803,0.53304 -0.68081,0.702554 -0.68081,0.439183 z m 89.55918,-1.719183 c -0.39804,-0.507537 -0.38672,-0.518856 0.12082,-0.120817 0.53303,0.418038 0.70255,0.680817 0.43918,0.680817 -0.0665,0 -0.31845,-0.252 -0.56,-0.56 z M 150.4,48.519182 c 0,-0.06645 0.252,-0.31845 0.56,-0.56 0.50753,-0.398039 0.51885,-0.38672 0.12081,0.120817 -0.41803,0.53304 -0.68081,0.702554 -0.68081,0.439183 z m -20.60381,-0.577736 c 0.0924,-0.149537 0.30208,-0.189039 0.46592,-0.08778 0.41868,0.25876 0.37154,0.359668 -0.16804,0.359668 -0.25625,0 -0.3903,-0.122349 -0.29788,-0.271888 z M 169.92,47.058885 c 0,-0.165613 0.14235,-0.389092 0.31633,-0.49662 0.1814,-0.112109 0.23504,0.01634 0.12576,0.301114 -0.21273,0.554374 -0.44209,0.655804 -0.44209,0.195506 z M 78.509698,43.36 c 0.0012,-1.408 0.05742,-1.944194 0.125019,-1.191542 0.0676,0.752652 0.06665,1.904652 -0.0021,2.56 C 78.563843,45.383806 78.508535,44.768 78.509698,43.36 Z m -47.875032,1.720291 c 0.217067,-0.218693 0.475277,-0.317014 0.573801,-0.218491 0.09852,0.09852 -0.07908,0.277456 -0.394667,0.397626 -0.456063,0.173659 -0.492819,0.136903 -0.179134,-0.179135 z M 76.874239,44.48 c 0,-0.616 0.06585,-0.868 0.146344,-0.56 0.08049,0.308 0.08049,0.812 0,1.12 -0.08049,0.308 -0.146344,0.056 -0.146344,-0.56 z m 14.805759,0 c 0.318556,-0.352 0.651192,-0.64 0.739192,-0.64 0.088,0 -0.100636,0.288 -0.419192,0.64 -0.318555,0.352 -0.651192,0.64 -0.739192,0.64 -0.088,0 0.100637,-0.288 0.419192,-0.64 z M 207.2,44.48 c 0.31855,-0.352 0.65119,-0.64 0.73919,-0.64 0.088,0 -0.10064,0.288 -0.41919,0.64 -0.31856,0.352 -0.6512,0.64 -0.7392,0.64 -0.088,0 0.10064,-0.288 0.4192,-0.64 z M 36.333665,43.542111 c -0.101258,-0.163839 -0.06176,-0.373504 0.08778,-0.465924 0.149538,-0.09242 0.271887,0.04163 0.271887,0.297889 0,0.539573 -0.100908,0.586717 -0.359667,0.168035 z M 109.44,43.709139 c 0,-0.06093 0.216,-0.290039 0.48,-0.509139 0.27667,-0.229616 0.48,-0.260716 0.48,-0.07342 0,0.17872 -0.216,0.407833 -0.48,0.509139 -0.264,0.101306 -0.48,0.134345 -0.48,0.07342 z m 23.04,-0.490254 c 0,-0.165613 0.14235,-0.389092 0.31633,-0.49662 0.1814,-0.112109 0.23504,0.01634 0.12577,0.301114 -0.21274,0.554374 -0.4421,0.655804 -0.4421,0.195506 z M 173.73292,42 c 0.17349,-0.308 0.69405,-0.992 1.15681,-1.52 0.63682,-0.726608 0.58858,-0.590462 -0.19843,0.56 -1.02767,1.502273 -1.56962,2.045142 -0.95838,0.96 z m 83.87568,0.363154 c 0.005,-0.155735 0.40074,-0.720771 0.88,-1.255635 0.96523,-1.0772 0.87985,-0.802445 -0.1913,0.615635 -0.38352,0.507735 -0.69343,0.795735 -0.6887,0.64 z M 68.707279,39.36 c -0.09205,-0.352 -0.03684,-0.64 0.122678,-0.64 0.159523,0 0.290042,0.288 0.290042,0.64 0,0.352 -0.05521,0.64 -0.122678,0.64 -0.06747,0 -0.197992,-0.288 -0.290042,-0.64 z m 190.812711,0.189139 c 0,-0.06093 0.216,-0.290039 0.48,-0.509139 0.27667,-0.229616 0.48,-0.260716 0.48,-0.07342 0,0.17872 -0.216,0.407833 -0.48,0.509139 -0.264,0.101306 -0.48,0.134345 -0.48,0.07342 z M 159.04,38.599182 c 0,-0.06645 0.252,-0.31845 0.56,-0.56 0.50753,-0.398039 0.51885,-0.38672 0.12081,0.120818 -0.41803,0.533039 -0.68081,0.702553 -0.68081,0.439182 z m 32.17366,-0.177071 c -0.10126,-0.163839 -0.0618,-0.373504 0.0878,-0.465924 0.14954,-0.09242 0.27189,0.04163 0.27189,0.297889 0,0.539574 -0.10091,0.586717 -0.35967,0.168035 z M 66.879999,37.28 c 0.413358,-0.44 0.823561,-0.8 0.911561,-0.8 0.088,0 -0.178203,0.36 -0.591561,0.8 -0.413359,0.44 -0.823561,0.8 -0.911561,0.8 -0.088,0 0.178202,-0.36 0.591561,-0.8 z m 68.020571,0.0662 c 0.12017,-0.315591 0.2991,-0.493191 0.39763,-0.394667 0.0985,0.09852 2e-4,0.356734 -0.21849,0.573801 -0.31604,0.313685 -0.3528,0.276929 -0.17914,-0.179134 z m 0.96,0 c 0.12017,-0.315591 0.2991,-0.493191 0.39763,-0.394667 0.0985,0.09852 2e-4,0.356734 -0.21849,0.573801 -0.31604,0.313685 -0.3528,0.276929 -0.17914,-0.179134 z m 62.24469,-1.052866 c 0.0154,-0.372782 0.0912,-0.448608 0.19333,-0.193333 0.0924,0.231 0.0811,0.507 -0.0253,0.613333 -0.10633,0.106333 -0.18197,-0.08267 -0.16807,-0.42 z M 136.96,35.079182 c 0,-0.06645 0.252,-0.31845 0.56,-0.56 0.50754,-0.398039 0.51885,-0.38672 0.12081,0.120818 -0.41803,0.533039 -0.68081,0.702553 -0.68081,0.439182 z m 2.88,-3.626667 c 0,-0.183783 0.252,-0.531783 0.56,-0.773333 0.518,-0.406245 0.52479,-0.391184 0.0906,0.200818 -0.2582,0.352 -0.5102,0.7 -0.56,0.773333 -0.0498,0.07333 -0.0906,-0.01703 -0.0906,-0.200818 z m 1.58405,-0.634693 c 0.18666,-0.386198 0.48496,-0.792148 0.66289,-0.902112 0.17792,-0.109963 0.2468,-0.324033 0.15306,-0.47571 -0.0937,-0.151678 -0.0367,-0.358413 0.12669,-0.459413 0.52676,-0.325556 0.19462,0.632989 -0.55441,1.600023 -0.46477,0.600047 -0.60501,0.685737 -0.38823,0.237212 z M 43.225262,29.573333 c 0.01535,-0.372782 0.09118,-0.448608 0.193334,-0.193333 0.09244,0.231 0.08107,0.507 -0.02526,0.613333 -0.106333,0.106333 -0.181964,-0.08267 -0.16807,-0.42 z M 140.96,29.44 c 0.31855,-0.352 0.65119,-0.64 0.73919,-0.64 0.088,0 -0.10064,0.288 -0.41919,0.64 -0.31856,0.352 -0.65119,0.64 -0.73919,0.64 -0.088,0 0.10063,-0.288 0.41919,-0.64 z M 44.542383,28.96 c 0.0065,-0.528 0.07824,-0.70526 0.159373,-0.39391 0.08113,0.31135 0.0758,0.74335 -0.01186,0.96 C 44.602243,29.74274 44.535861,29.488 44.542383,28.96 Z m -1.317121,-0.986667 c 0.01535,-0.372782 0.09118,-0.448608 0.193334,-0.193333 0.09244,0.231 0.08107,0.507 -0.02526,0.613333 -0.106333,0.106333 -0.181964,-0.08267 -0.16807,-0.42 z M 143.04,27.419869 c 0,-0.05507 0.468,-0.523072 1.04,-1.04 L 145.12,25.44 144.18013,26.48 C 143.30404,27.449425 143.04,27.667088 143.04,27.419869 Z M 248.55999,26.98807 c 0.22,-0.08877 0.58,-0.08877 0.8,0 0.22,0.08877 0.04,0.161403 -0.4,0.161403 -0.44,0 -0.62,-0.07263 -0.4,-0.161403 z M 31.958041,26.450557 c 0.196023,-0.236194 0.285655,-0.500194 0.199182,-0.586667 -0.08647,-0.08647 0.05937,-0.157224 0.324106,-0.157224 0.410405,0 0.403097,0.08645 -0.0496,0.586667 -0.608159,0.672009 -1.012233,0.806125 -0.473692,0.157224 z m 1.484224,-0.846892 c -0.112109,-0.181395 0.01634,-0.235042 0.301114,-0.125763 0.554374,0.212733 0.655804,0.442098 0.195506,0.442098 -0.165613,0 -0.389092,-0.142351 -0.49662,-0.316335 z M 155.22526,24.133333 c 0.0154,-0.372782 0.0912,-0.448608 0.19333,-0.193333 0.0924,0.231 0.0811,0.507 -0.0253,0.613333 -0.10633,0.106333 -0.18196,-0.08267 -0.16807,-0.42 z"
         id="path7" />
      <path
         style="fill:#a3a3a3;fill-opacity:1"
         d="m 127.10238,55.839999 c 0.007,-0.528 0.0782,-0.705259 0.15937,-0.393909 0.0811,0.311349 0.0758,0.743349 -0.0119,0.96 -0.0877,0.21665 -0.15404,-0.03809 -0.14752,-0.566091 z M 28.672961,55.733333 c -0.09065,-0.146667 0.03852,-0.266667 0.287038,-0.266667 0.248516,0 0.377684,0.12 0.287039,0.266667 -0.09064,0.146666 -0.219813,0.266666 -0.287039,0.266666 -0.06723,0 -0.196393,-0.12 -0.287038,-0.266666 z M 146.42643,54.122766 c -0.0942,-0.152478 0.11946,-0.540404 0.47488,-0.862058 0.57163,-0.517311 0.62222,-0.522249 0.43822,-0.04277 -0.1144,0.298132 -0.3451,0.542058 -0.51265,0.542058 -0.16756,0 -0.21566,0.144 -0.10688,0.32 0.10877,0.176 0.12577,0.32 0.0378,0.32 -0.088,0 -0.2371,-0.124754 -0.33134,-0.277233 z M 230.4,52.994236 c 0,-0.06917 0.22347,-0.211521 0.49662,-0.316335 0.28477,-0.109279 0.41322,-0.05563 0.30111,0.125764 C 231.00981,53.10773 230.4,53.253408 230.4,52.994236 Z m -208.32,-0.8 c 0,-0.15717 0.236367,-0.376467 0.525261,-0.487326 0.439192,-0.168533 0.458989,-0.121707 0.120818,0.285764 C 22.265239,52.547952 22.08,52.605743 22.08,52.194236 Z m 162.18,-0.572833 c 0.231,-0.09244 0.507,-0.08107 0.61333,0.02526 0.10633,0.106333 -0.0827,0.181965 -0.42,0.16807 -0.37278,-0.01536 -0.44861,-0.09118 -0.19333,-0.193333 z m 46.72,0 c 0.231,-0.09244 0.507,-0.08107 0.61333,0.02526 0.10633,0.106333 -0.0827,0.181965 -0.42,0.16807 -0.37278,-0.01536 -0.44861,-0.09118 -0.19333,-0.193333 z M 24.799999,49.279999 c 0.108774,-0.176 0.261273,-0.32 0.338886,-0.32 0.07761,0 0.141114,0.144 0.141114,0.32 0,0.176 -0.152498,0.32 -0.338885,0.32 -0.186387,0 -0.249888,-0.144 -0.141115,-0.32 z m 62.179999,-0.538596 c 0.231,-0.09244 0.507,-0.08107 0.613334,0.02526 0.106333,0.106333 -0.08267,0.181965 -0.42,0.16807 -0.372782,-0.01535 -0.448608,-0.09118 -0.193334,-0.193333 z m 115.520002,0 c 0.231,-0.09244 0.507,-0.08107 0.61333,0.02526 0.10633,0.106333 -0.0827,0.181965 -0.42,0.16807 -0.37278,-0.01535 -0.44861,-0.09118 -0.19333,-0.193333 z m 38.72,0 c 0.231,-0.09244 0.507,-0.08107 0.61333,0.02526 0.10633,0.106333 -0.0827,0.181965 -0.42,0.16807 -0.37278,-0.01535 -0.44861,-0.09118 -0.19333,-0.193333 z M 41.919999,47.879182 c 0,-0.06645 0.252,-0.31845 0.56,-0.56 0.507538,-0.398039 0.518856,-0.38672 0.120818,0.120817 -0.418038,0.53304 -0.680818,0.702554 -0.680818,0.439183 z m -3.96,-3.654461 c -0.08677,-0.140403 -0.02965,-0.462588 0.126949,-0.715966 0.214693,-0.34738 0.271456,-0.284594 0.230789,0.255279 -0.05852,0.776819 -0.116338,0.85128 -0.357738,0.460687 z M 256.66526,43.333333 c 0.0154,-0.372782 0.0912,-0.448608 0.19333,-0.193333 0.0924,0.231 0.0811,0.507 -0.0253,0.613333 -0.10634,0.106333 -0.18197,-0.08267 -0.16807,-0.42 z M 98.559998,42.439182 c 0,-0.06645 0.252,-0.31845 0.56,-0.56 0.507538,-0.398039 0.518856,-0.38672 0.120818,0.120818 -0.418039,0.533039 -0.680818,0.702553 -0.680818,0.439182 z m 115.520002,0 c 0,-0.06645 0.252,-0.31845 0.56,-0.56 0.50753,-0.398039 0.51885,-0.38672 0.12081,0.120818 -0.41803,0.533039 -0.68081,0.702553 -0.68081,0.439182 z m -186.880001,-6.72 c 0,-0.06645 0.252,-0.31845 0.56,-0.56 0.507538,-0.398039 0.518857,-0.38672 0.120818,0.120818 -0.418038,0.533039 -0.680818,0.702553 -0.680818,0.439182 z M 138.42057,32.733801 c -0.17366,-0.456064 -0.1369,-0.49282 0.17914,-0.179135 0.21869,0.217067 0.31701,0.475277 0.21849,0.573801 -0.0985,0.09852 -0.27746,-0.07908 -0.39763,-0.394666 z M 139.84,32.48 c 0.41336,-0.44 0.82356,-0.8 0.91156,-0.8 0.088,0 -0.1782,0.36 -0.59156,0.8 -0.41336,0.44 -0.82356,0.8 -0.91156,0.8 -0.088,0 0.1782,-0.36 0.59156,-0.8 z m 2.4,-4.32 c 0.31855,-0.352 0.65119,-0.64 0.73919,-0.64 0.088,0 -0.10064,0.288 -0.41919,0.64 -0.31856,0.352 -0.65119,0.64 -0.73919,0.64 -0.088,0 0.10063,-0.288 0.41919,-0.64 z M 144,28 c 0.41336,-0.44 0.82356,-0.8 0.91156,-0.8 0.088,0 -0.1782,0.36 -0.59156,0.8 -0.41336,0.44 -0.82356,0.8 -0.91156,0.8 -0.088,0 0.1782,-0.36 0.59156,-0.8 z m 106.96965,-1.035607 c 0.84131,-0.06614 2.13731,-0.06534 2.88,0.0018 0.74269,0.06711 0.0543,0.121223 -1.52966,0.120248 -1.584,-9.75e-4 -2.19165,-0.05588 -1.35034,-0.122021 z"
         id="path6" />
      <path
         style="fill:#8c8c8c;fill-opacity:1"
         d="m 145.15959,55.424056 c -0.10148,-0.164187 0.13362,-0.569768 0.52244,-0.90129 0.69354,-0.591341 0.69794,-0.59122 0.23245,0.0064 -0.26096,0.33505 -0.42648,0.67105 -0.36782,0.746666 0.0587,0.07562 0.0371,0.207065 -0.048,0.292108 -0.085,0.08504 -0.23765,0.02029 -0.33912,-0.1439 z M 147.52,52.679182 c 0,-0.06645 0.252,-0.31845 0.56,-0.56 0.50753,-0.398039 0.51885,-0.38672 0.12081,0.120817 -0.41803,0.53304 -0.68081,0.702554 -0.68081,0.439183 z m 38.72,-0.644946 c 0,-0.06917 0.216,-0.208651 0.48,-0.309957 0.264,-0.101306 0.48,-0.04471 0.48,0.125764 0,0.170476 -0.216,0.309956 -0.48,0.309956 -0.264,0 -0.48,-0.05659 -0.48,-0.125763 z m 43.86526,-0.700903 c 0.0154,-0.372782 0.0912,-0.448608 0.19333,-0.193334 0.0924,0.231 0.0811,0.507 -0.0253,0.613334 -0.10633,0.106333 -0.18197,-0.08267 -0.16807,-0.42 z M 25.919999,50.079999 c 0.413359,-0.44 0.823561,-0.8 0.911561,-0.8 0.088,0 -0.178202,0.36 -0.591561,0.8 -0.413358,0.44 -0.82356,0.8 -0.91156,0.8 -0.088,0 0.178202,-0.36 0.59156,-0.8 z m 205.316181,0.421447 c 0.0924,-0.149537 0.30209,-0.189039 0.46593,-0.08778 0.41868,0.25876 0.37154,0.359668 -0.16804,0.359668 -0.25626,0 -0.39031,-0.122349 -0.29789,-0.271888 z M 41.945262,48.453333 c 0.01535,-0.372782 0.09118,-0.448608 0.193334,-0.193334 0.09244,0.231 0.08107,0.507 -0.02526,0.613334 -0.106333,0.106333 -0.181964,-0.08267 -0.16807,-0.42 z M 169.6,48.018885 c 0,-0.165613 0.14235,-0.389092 0.31633,-0.49662 0.1814,-0.112109 0.23504,0.01634 0.12576,0.301114 -0.21273,0.554374 -0.44209,0.655804 -0.44209,0.195506 z m -1.28,-0.139703 c 0,-0.06645 0.252,-0.31845 0.56,-0.56 0.50753,-0.398039 0.51885,-0.38672 0.12081,0.120817 -0.41803,0.53304 -0.68081,0.702554 -0.68081,0.439183 z m 85.11999,-4.16 c 0,-0.06645 0.252,-0.31845 0.56,-0.56 0.50754,-0.398039 0.51886,-0.38672 0.12082,0.120818 -0.41804,0.533039 -0.68082,0.702553 -0.68082,0.439182 z M 76.880697,41.12 c 0.0036,-0.704 0.06908,-0.954322 0.145625,-0.55627 0.07654,0.398053 0.07364,0.974052 -0.0065,1.28 C 76.93977,42.149678 76.877145,41.824 76.880697,41.12 Z M 222.4,41.44 c 0.41335,-0.44 0.82356,-0.8 0.91156,-0.8 0.088,0 -0.17821,0.36 -0.59156,0.8 -0.41336,0.44 -0.82357,0.8 -0.91157,0.8 -0.088,0 0.17821,-0.36 0.59157,-0.8 z m 21.44,-1.240818 c 0,-0.06645 0.252,-0.31845 0.56,-0.56 0.50753,-0.398039 0.51885,-0.38672 0.12081,0.120818 -0.41804,0.533039 -0.68081,0.702553 -0.68081,0.439182 z m -53.76,-0.644946 c 0,-0.06917 0.22348,-0.211521 0.49662,-0.316335 0.28477,-0.109278 0.41322,-0.05563 0.30111,0.125764 -0.18792,0.304065 -0.79773,0.449743 -0.79773,0.190571 z M 246.99918,38.8 c -0.39804,-0.507538 -0.38672,-0.518857 0.12082,-0.120818 0.308,0.24155 0.56,0.49355 0.56,0.56 0,0.263371 -0.26278,0.09386 -0.68082,-0.439182 z M 137.44,34.88 c 0.10877,-0.176 0.34177,-0.32 0.51777,-0.32 0.176,0 0.231,0.144 0.12223,0.32 -0.10878,0.176 -0.34177,0.32 -0.51777,0.32 -0.176,0 -0.23101,-0.144 -0.12223,-0.32 z m 3.66854,-4.747407 c 0.21082,-0.411074 0.47107,-0.659645 0.57834,-0.552381 0.10726,0.107264 -0.0652,0.443597 -0.38331,0.747407 -0.55288,0.528071 -0.56147,0.519488 -0.19503,-0.195026 z M 243.46,28.261403 c 0.231,-0.09244 0.507,-0.08107 0.61333,0.02526 0.10633,0.106334 -0.0827,0.181965 -0.42,0.168071 -0.37278,-0.01536 -0.44861,-0.09118 -0.19333,-0.193334 z M 44.185262,27.653333 c 0.01535,-0.372782 0.09118,-0.448608 0.193334,-0.193333 0.09244,0.231 0.08107,0.507 -0.02526,0.613333 -0.106333,0.106333 -0.181964,-0.08267 -0.16807,-0.42 z M 244.96226,27.523665 c -0.11211,-0.181395 0.0163,-0.235042 0.30111,-0.125763 0.55438,0.212733 0.65581,0.442098 0.19551,0.442098 -0.16561,0 -0.38909,-0.142351 -0.49662,-0.316335 z M 37.399182,23.12 c -0.398039,-0.507538 -0.386721,-0.518857 0.120817,-0.120818 0.308,0.24155 0.56,0.49355 0.56,0.56 0,0.263371 -0.262779,0.09386 -0.680817,-0.439182 z m 116.546078,0.05333 c 0.0154,-0.372782 0.0912,-0.448608 0.19333,-0.193333 0.0924,0.231 0.0811,0.507 -0.0253,0.613333 -0.10633,0.106333 -0.18196,-0.08267 -0.16807,-0.42 z"
         id="path5" />
      <path
         style="fill:#767676;fill-opacity:1"
         d="m 229.70384,59.415736 c -0.11906,-0.583943 -0.0745,-0.794354 0.1259,-0.59399 0.17065,0.17065 0.25362,0.577568 0.18437,0.904263 -0.0932,0.439942 -0.17372,0.359474 -0.31027,-0.310273 z M 28.159999,55.981114 c 0,-0.186387 0.144,-0.249889 0.32,-0.141115 0.176,0.108774 0.32,0.261273 0.32,0.338886 0,0.07761 -0.144,0.141114 -0.32,0.141114 -0.176,0 -0.32,-0.152498 -0.32,-0.338885 z M 144.23466,55.640291 c 0.21707,-0.218694 0.47528,-0.317014 0.5738,-0.218491 0.0985,0.09852 -0.0791,0.277456 -0.39466,0.397626 -0.45607,0.173659 -0.49282,0.136902 -0.17914,-0.179135 z M 31.999999,54.599182 c 0,-0.06645 0.252,-0.31845 0.56,-0.56 0.507538,-0.398039 0.518857,-0.38672 0.120818,0.120817 -0.418038,0.53304 -0.680818,0.702554 -0.680818,0.439183 z m 74.240001,-0.32 c 0,-0.06645 0.252,-0.31845 0.56,-0.56 0.50754,-0.398039 0.51885,-0.38672 0.12082,0.120817 -0.41804,0.53304 -0.68082,0.702554 -0.68082,0.439183 z m -4,-3.079183 c 0.68744,-0.704 1.32188,-1.28 1.40988,-1.28 0.088,0 -0.40244,0.576 -1.08988,1.28 -0.68744,0.704 -1.32189,1.28 -1.40989,1.28 -0.088,0 0.40245,-0.576 1.08989,-1.28 z m 26.24226,0.643666 c -0.11211,-0.181395 0.0163,-0.235043 0.30112,-0.125764 0.55437,0.212733 0.6558,0.442098 0.1955,0.442098 -0.16561,0 -0.38909,-0.14235 -0.49662,-0.316334 z M 148.48,51.519999 c 0,-0.176 0.1525,-0.32 0.33888,-0.32 0.18639,0 0.24989,0.144 0.14112,0.32 -0.10878,0.176 -0.26128,0.32 -0.33889,0.32 -0.0776,0 -0.14111,-0.144 -0.14111,-0.32 z m 93.36,-1.171929 c 0.22,-0.08877 0.58,-0.08877 0.8,0 0.22,0.08877 0.04,0.161403 -0.4,0.161403 -0.44,0 -0.62,-0.07263 -0.4,-0.161403 z M 53.059999,50.021403 c 0.231,-0.09244 0.507,-0.08107 0.613333,0.02526 0.106334,0.106333 -0.08267,0.181965 -0.42,0.16807 -0.372781,-0.01535 -0.448608,-0.09118 -0.193333,-0.193333 z m 99.079871,-1.946406 c 0.51692,-0.569249 1.06721,-1.034998 1.22285,-1.034998 0.2993,0 -0.0778,0.394257 -1.37268,1.434998 -0.63383,0.509444 -0.60421,0.430354 0.14983,-0.4 z M 229.44,48.275649 c 0,-0.08575 0.408,-0.5468 0.90666,-1.024553 0.64736,-0.620208 0.90667,-0.728852 0.90667,-0.379869 0,0.268825 -0.0733,0.415455 -0.16293,0.325846 -0.0896,-0.08961 -0.49761,0.151491 -0.90666,0.53578 -0.40906,0.384289 -0.74374,0.628547 -0.74374,0.542796 z m -98.88,-1.536764 c 0,-0.52082 0.6796,-0.747408 1.06788,-0.356045 0.28388,0.286143 0.22689,0.31975 -0.24038,0.141738 -0.42749,-0.162859 -0.5426,-0.120257 -0.38111,0.141041 0.12726,0.205909 0.0789,0.37438 -0.10751,0.37438 -0.18638,0 -0.33888,-0.135501 -0.33888,-0.301114 z M 251.72848,45.30774 c 0.50133,-0.600743 1.12751,-1.185192 1.39151,-1.298776 0.264,-0.113584 -0.0892,0.377933 -0.78494,1.092259 -1.54286,1.584127 -1.8409,1.685601 -0.60657,0.206517 z M 183.31918,45.2 c -0.39804,-0.507538 -0.38672,-0.518857 0.12082,-0.120818 0.53304,0.418038 0.70255,0.680818 0.43918,0.680818 -0.0665,0 -0.31845,-0.252 -0.56,-0.56 z M 244.48,43.36 c 0.41335,-0.44 0.82356,-0.8 0.91156,-0.8 0.088,0 -0.17821,0.36 -0.59156,0.8 -0.41336,0.44 -0.82357,0.8 -0.91157,0.8 -0.088,0 0.17821,-0.36 0.59157,-0.8 z m -85.95242,0.08 c -0.12661,-0.22 -0.10909,-0.289984 0.0389,-0.15552 0.14801,0.134464 0.7111,-0.153536 1.2513,-0.64 L 160.8,41.76 159.86013,42.8 c -1.07672,1.191427 -1.02854,1.168286 -1.33255,0.64 z M 48.493665,42.902111 c -0.195616,-0.316512 0.344034,-0.761377 1.053977,-0.868855 0.296952,-0.04496 0.257347,0.123434 -0.129596,0.551001 -0.640078,0.707279 -0.676057,0.71965 -0.924381,0.317854 z m 83.475775,-0.07155 c -0.14147,-0.228896 -0.0878,-0.28258 0.14111,-0.141115 0.2032,0.125581 0.36945,0.103353 0.36945,-0.0494 0,-0.152748 0.22297,-0.557246 0.49549,-0.898885 0.43765,-0.548651 0.43669,-0.499759 -0.008,0.418839 -0.55385,1.143528 -0.66101,1.215542 -0.99783,0.670557 z m 56.69113,-1.324358 c 0.12017,-0.315591 0.2991,-0.493191 0.39763,-0.394667 0.0985,0.09852 2e-4,0.356734 -0.2185,0.573801 -0.31603,0.313685 -0.35279,0.276929 -0.17913,-0.179134 z M 75.359998,40.96 c 0.318556,-0.352 0.651193,-0.64 0.739193,-0.64 0.088,0 -0.100637,0.288 -0.419193,0.64 -0.318555,0.352 -0.651192,0.64 -0.739192,0.64 -0.088,0 0.100637,-0.288 0.419192,-0.64 z M 260.15999,40.48 c 0.41336,-0.44 0.82357,-0.8 0.91157,-0.8 0.088,0 -0.17821,0.36 -0.59157,0.8 -0.41335,0.44 -0.82356,0.8 -0.91156,0.8 -0.088,0 0.17821,-0.36 0.59156,-0.8 z M 216.16,40.32 c 0.31855,-0.352 0.65119,-0.64 0.73919,-0.64 0.088,0 -0.10064,0.288 -0.41919,0.64 -0.31856,0.352 -0.6512,0.64 -0.7392,0.64 -0.088,0 0.10064,-0.288 0.4192,-0.64 z M 133.92,40 c -0.10878,-0.176 -0.0453,-0.32 0.14111,-0.32 0.18639,0 0.33889,0.144 0.33889,0.32 0,0.176 -0.0635,0.32 -0.14112,0.32 -0.0776,0 -0.23011,-0.144 -0.33888,-0.32 z m 57.44,-0.440818 c 0,-0.06645 0.252,-0.31845 0.56,-0.56 0.50753,-0.398039 0.51885,-0.38672 0.12081,0.120818 -0.41803,0.533039 -0.68081,0.702553 -0.68081,0.439182 z M 192.48,37.12 c 0.31855,-0.352 0.65119,-0.64 0.73919,-0.64 0.088,0 -0.10064,0.288 -0.41919,0.64 -0.31856,0.352 -0.6512,0.64 -0.7392,0.64 -0.088,0 0.10064,-0.288 0.4192,-0.64 z m 0.8,0.519182 c 0,-0.06645 0.252,-0.31845 0.56,-0.56 0.50753,-0.398039 0.51885,-0.38672 0.12081,0.120818 -0.41803,0.533039 -0.68081,0.702553 -0.68081,0.439182 z m -45.12,-2.56 c 0,-0.06645 0.252,-0.31845 0.56,-0.56 0.50753,-0.398039 0.51885,-0.38672 0.12081,0.120818 -0.41803,0.533039 -0.68081,0.702553 -0.68081,0.439182 z M 137.16428,34.08 c 0.1013,-0.264 0.24078,-0.48 0.30995,-0.48 0.0692,0 0.12577,0.216 0.12577,0.48 0,0.264 -0.13948,0.48 -0.30996,0.48 -0.17048,0 -0.22707,-0.216 -0.12576,-0.48 z M 43.700573,32.733801 c -0.173659,-0.456064 -0.136903,-0.49282 0.179134,-0.179135 0.218694,0.217067 0.317015,0.475277 0.218491,0.573801 -0.09852,0.09852 -0.277455,-0.07908 -0.397625,-0.394666 z M 27.999999,29.44 c 0.687438,-0.704 1.321887,-1.28 1.409887,-1.28 0.088,0 -0.402449,0.576 -1.089887,1.28 -0.687437,0.704 -1.321886,1.28 -1.409886,1.28 -0.088,0 0.402449,-0.576 1.089886,-1.28 z M 225.22,28.901403 c 0.231,-0.09244 0.507,-0.08107 0.61333,0.02526 0.10633,0.106334 -0.0827,0.181965 -0.42,0.168071 -0.37278,-0.01535 -0.44861,-0.09118 -0.19333,-0.193334 z m 2.62,0.09492 c 0,-0.262777 1.95708,-0.395196 2.11297,-0.142965 0.0906,0.146655 -0.3477,0.266646 -0.97409,0.266646 -0.62639,0 -1.13888,-0.05566 -1.13888,-0.123681 z M 232,28.677304 c 0,-0.06748 0.36,-0.191513 0.8,-0.275625 0.44,-0.08411 0.8,-0.0289 0.8,0.122696 0,0.151593 -0.36,0.275625 -0.8,0.275625 -0.44,0 -0.8,-0.05521 -0.8,-0.122696 z M 236.96,28.16 c 0.10877,-0.176 0.26127,-0.32 0.33888,-0.32 0.0776,0 0.14112,0.144 0.14112,0.32 0,0.176 -0.1525,0.32 -0.33889,0.32 -0.18639,0 -0.24989,-0.144 -0.14111,-0.32 z m 13.04609,-0.221757 c 0.31134,-0.08113 0.74334,-0.0758 0.96,0.01186 0.21665,0.08766 -0.0381,0.154038 -0.5661,0.147516 -0.528,-0.0065 -0.70525,-0.07824 -0.3939,-0.159373 z M 245.44,27.52 c -0.28842,-0.186387 -0.32789,-0.312156 -0.0989,-0.3151 0.20961,-0.0027 0.47011,0.1391 0.57889,0.3151 0.24553,0.397288 0.13475,0.397288 -0.48,0 z m 8.15999,0 c 0.10878,-0.176 0.34178,-0.32 0.51778,-0.32 0.176,0 0.231,0.144 0.12222,0.32 -0.10877,0.176 -0.34177,0.32 -0.51777,0.32 -0.176,0 -0.231,-0.144 -0.12223,-0.32 z M 30.879999,27.2 c 0.108774,-0.176 0.261273,-0.32 0.338886,-0.32 0.07761,0 0.141114,0.144 0.141114,0.32 0,0.176 -0.152498,0.32 -0.338885,0.32 -0.186387,0 -0.249889,-0.144 -0.141115,-0.32 z m 218.799991,0.09942 c 0.308,-0.08049 0.812,-0.08049 1.12,0 0.308,0.08049 0.056,0.146343 -0.56,0.146343 -0.616,0 -0.868,-0.06585 -0.56,-0.146343 z M 32.500573,26.466199 c 0.12017,-0.315591 0.299101,-0.493191 0.397625,-0.394667 0.09852,0.09852 2.03e-4,0.356734 -0.218491,0.573801 -0.316037,0.313686 -0.352793,0.276929 -0.179134,-0.179134 z M 34.239999,25.28 c -0.288413,-0.186387 -0.327882,-0.312156 -0.09888,-0.3151 0.209613,-0.0027 0.470111,0.1391 0.578885,0.3151 0.245538,0.397288 0.13476,0.397288 -0.48,0 z m 1.133666,-0.617889 c -0.101258,-0.163839 -0.06176,-0.373504 0.08778,-0.465923 0.149538,-0.09242 0.271887,0.04163 0.271887,0.297888 0,0.539574 -0.100908,0.586717 -0.359667,0.168035 z m 3.206908,-2.035912 c 0.12017,-0.315591 0.299101,-0.493191 0.397625,-0.394667 0.09852,0.09852 2.03e-4,0.356734 -0.218491,0.573801 -0.316037,0.313686 -0.352793,0.276929 -0.179134,-0.179134 z m 1.391157,-0.03214 c 0.303296,-0.36545 0.2783,-0.492434 -0.12101,-0.614754 -0.411894,-0.126174 -0.405268,-0.145553 0.03649,-0.106736 0.739352,0.06497 0.901693,0.721816 0.241053,0.975327 -0.43949,0.168648 -0.468338,0.121867 -0.156532,-0.253837 z"
         id="path4" />
      <path
         style="fill:#606060;fill-opacity:1"
         d="m 128.91918,60.879999 c -0.39804,-0.507537 -0.38672,-0.518856 0.12082,-0.120817 0.308,0.24155 0.56,0.49355 0.56,0.56 0,0.263371 -0.26278,0.09386 -0.68082,-0.439183 z M 229.44,59.069139 c 0,-0.06093 0.216,-0.290039 0.48,-0.50914 0.27667,-0.229615 0.48,-0.260716 0.48,-0.07342 0,0.17872 -0.216,0.407833 -0.48,0.509139 -0.264,0.101306 -0.48,0.134345 -0.48,0.07342 z M 26.074571,57.288783 c 0.0855,-0.138342 0.445898,-0.327484 0.800883,-0.420315 0.354986,-0.09283 0.575474,-0.05559 0.489974,0.08275 -0.0855,0.138342 -0.445898,0.327484 -0.800883,0.420314 -0.354986,0.09283 -0.575474,0.05559 -0.489974,-0.08275 z m 5.285428,-2.537282 c 0,-0.332301 0.608709,-0.813352 0.789015,-0.623545 0.05854,0.06162 -0.09504,0.297721 -0.34129,0.52466 -0.246248,0.226939 -0.447725,0.271437 -0.447725,0.09888 z M 128.32,54.133333 c 0,-0.146667 0.20966,-0.266667 0.46592,-0.266667 0.25626,0 0.39176,0.12 0.30112,0.266667 -0.0907,0.146666 -0.30032,0.266666 -0.46593,0.266666 -0.16561,0 -0.30111,-0.12 -0.30111,-0.266666 z M 32.959999,53.639182 c 0,-0.06645 0.252,-0.31845 0.56,-0.56 0.507538,-0.398039 0.518857,-0.38672 0.120818,0.120817 -0.418038,0.53304 -0.680818,0.702554 -0.680818,0.439183 z M 147.2,52.178885 c 0,-0.165613 0.14235,-0.389092 0.31633,-0.49662 0.1814,-0.112109 0.23504,0.01634 0.12577,0.301114 -0.21274,0.554374 -0.4421,0.655804 -0.4421,0.195506 z M 24.121415,51.718584 c 0.04238,-0.288785 0.238426,-0.686426 0.435647,-0.883647 0.264779,-0.264779 0.338425,-0.221229 0.281522,0.166478 -0.04238,0.288785 -0.238426,0.686426 -0.435647,0.883647 -0.264779,0.264779 -0.338425,0.221229 -0.281522,-0.166478 z M 186.72226,51.203665 c -0.11211,-0.181395 0.0163,-0.235043 0.30112,-0.125764 0.55437,0.212733 0.6558,0.442098 0.1955,0.442098 -0.16561,0 -0.38909,-0.14235 -0.49662,-0.316334 z m -129.279996,-0.64 c -0.112108,-0.181395 0.01634,-0.235043 0.301115,-0.125764 0.554373,0.212733 0.655804,0.442098 0.195505,0.442098 -0.165613,0 -0.389092,-0.14235 -0.49662,-0.316334 z M 189.22666,50.414076 c 0,-0.256258 0.12235,-0.390308 0.27189,-0.297889 0.14954,0.09242 0.18904,0.302085 0.0878,0.465924 -0.25876,0.418682 -0.35967,0.371538 -0.35967,-0.168035 z M 191.84,49.279999 c 0.68743,-0.704 1.32188,-1.28 1.40988,-1.28 0.088,0 -0.40245,0.576 -1.08988,1.28 -0.68744,0.704 -1.32189,1.28 -1.40989,1.28 -0.088,0 0.40245,-0.576 1.08989,-1.28 z M 25.098422,49.954913 c 0.228306,-0.369407 1.461577,-1.114457 1.461577,-0.882976 0,0.07395 -0.377729,0.381954 -0.839399,0.684452 -0.46167,0.302497 -0.74165,0.391833 -0.622178,0.198524 z M 104.16,49.279999 c 0.31855,-0.352 0.65119,-0.64 0.73919,-0.64 0.088,0 -0.10064,0.288 -0.41919,0.64 -0.31856,0.352 -0.65119,0.64 -0.73919,0.64 -0.088,0 0.10063,-0.288 0.41919,-0.64 z m -59.680001,0.199183 c 0,-0.06645 0.252,-0.31845 0.56,-0.56 0.507538,-0.398039 0.518856,-0.38672 0.120818,0.120817 -0.418039,0.53304 -0.680818,0.702554 -0.680818,0.439183 z m 40.599182,-0.439183 c -0.398039,-0.507537 -0.386721,-0.518856 0.120817,-0.120817 0.308,0.24155 0.56,0.49355 0.56,0.56 0,0.263371 -0.262779,0.09386 -0.680817,-0.439183 z m 115.519999,0 c -0.39804,-0.507537 -0.38672,-0.518856 0.12082,-0.120817 0.308,0.24155 0.56,0.49355 0.56,0.56 0,0.263371 -0.26278,0.09386 -0.68082,-0.439183 z M 27.380573,48.546198 c 0.12017,-0.31559 0.299102,-0.49319 0.397625,-0.394666 0.09852,0.09852 2.03e-4,0.356734 -0.21849,0.573801 -0.316038,0.313685 -0.352794,0.276929 -0.179135,-0.179135 z m 23.204689,-1.372865 c 0.01535,-0.372782 0.09118,-0.448608 0.193333,-0.193334 0.09244,0.231 0.08107,0.507 -0.02526,0.613334 -0.106333,0.106333 -0.181965,-0.08267 -0.16807,-0.42 z m -5.912301,-0.4 c -0.09065,-0.146667 0.03852,-0.266667 0.287038,-0.266667 0.248516,0 0.377683,0.12 0.287038,0.266667 -0.09065,0.146666 -0.219812,0.266666 -0.287038,0.266666 -0.06723,0 -0.196393,-0.12 -0.287038,-0.266666 z m 86.387609,-1.107134 c 0.12017,-0.315591 0.2991,-0.493191 0.39763,-0.394667 0.0985,0.09852 2e-4,0.356734 -0.21849,0.573801 -0.31604,0.313685 -0.3528,0.276929 -0.17914,-0.179134 z M 153.76,45.12 c 0.10877,-0.176 0.26127,-0.32 0.33888,-0.32 0.0776,0 0.14112,0.144 0.14112,0.32 0,0.176 -0.1525,0.32 -0.33889,0.32 -0.18639,0 -0.24989,-0.144 -0.14111,-0.32 z m 39.84,0.199182 c 0,-0.06645 0.252,-0.31845 0.56,-0.56 0.50753,-0.398039 0.51885,-0.38672 0.12081,0.120818 -0.41803,0.533039 -0.68081,0.702553 -0.68081,0.439182 z m -61.88704,-0.465849 c -0.0907,-0.146667 0.0385,-0.266667 0.28704,-0.266667 0.24851,0 0.37768,0.12 0.28704,0.266667 C 132.19639,45 132.06722,45.12 132,45.12 c -0.0672,0 -0.1964,-0.12 -0.28704,-0.266667 z m 120.44703,-0.311294 c 0,-0.167021 0.216,-0.482939 0.48,-0.702039 0.264,-0.219101 0.48,-0.298447 0.48,-0.176326 0,0.122122 -0.216,0.43804 -0.48,0.70204 -0.264,0.264 -0.48,0.343346 -0.48,0.176325 z m -97.25473,-0.283154 c -0.0365,-0.550682 0.52979,-0.815211 0.80207,-0.374663 0.13801,0.223311 0.0933,0.289249 -0.11056,0.163226 -0.18816,-0.11629 -0.41504,-0.03054 -0.50418,0.190558 -0.116,0.287725 -0.16925,0.29366 -0.18733,0.02088 z M 44.799999,43.84 c 0,-0.176 0.144,-0.32 0.32,-0.32 0.176,0 0.32,0.144 0.32,0.32 0,0.176 -0.144,0.32 -0.32,0.32 -0.176,0 -0.32,-0.144 -0.32,-0.32 z m 3.363226,-0.32522 c 0.110548,-0.178871 0.335047,-0.242373 0.498885,-0.141115 0.443854,0.274317 0.361092,0.466335 -0.200996,0.466335 -0.274387,0 -0.408437,-0.146349 -0.297889,-0.32522 z M 171.15918,43.28 c -0.39804,-0.507538 -0.38672,-0.518857 0.12082,-0.120818 0.308,0.24155 0.56,0.49355 0.56,0.56 0,0.263371 -0.26278,0.09386 -0.68082,-0.439182 z M 159.2,42.56 c 0.31855,-0.352 0.65119,-0.64 0.73919,-0.64 0.088,0 -0.10064,0.288 -0.41919,0.64 -0.31856,0.352 -0.6512,0.64 -0.7392,0.64 -0.088,0 0.10064,-0.288 0.4192,-0.64 z m 12.49366,0.342111 c -0.10126,-0.163839 -0.0617,-0.373504 0.0878,-0.465924 0.14954,-0.09242 0.27189,0.04163 0.27189,0.297889 0,0.539573 -0.10091,0.586717 -0.35967,0.168035 z M 187.84,42.56 c 0.18838,-0.352 0.41451,-0.64 0.50251,-0.64 0.088,0 0.006,0.288 -0.18251,0.64 -0.18839,0.352 -0.41452,0.64 -0.50252,0.64 -0.088,0 -0.006,-0.288 0.18252,-0.64 z m 27.72826,-0.05333 c 0.60816,-0.672009 1.01223,-0.806125 0.47369,-0.157223 -0.19602,0.236193 -0.28565,0.500193 -0.19918,0.586666 0.0865,0.08647 -0.0594,0.157224 -0.3241,0.157224 -0.41041,0 -0.4031,-0.08645 0.0496,-0.586667 z M 155.84,42.759182 c 0,-0.06645 0.252,-0.31845 0.56,-0.56 0.50753,-0.398039 0.51885,-0.38672 0.12081,0.120818 -0.41803,0.533039 -0.68081,0.702553 -0.68081,0.439182 z M 253.27999,42.24 c 0.31856,-0.352 0.6512,-0.64 0.7392,-0.64 0.088,0 -0.10064,0.288 -0.4192,0.64 -0.31855,0.352 -0.65119,0.64 -0.73919,0.64 -0.088,0 0.10064,-0.288 0.41919,-0.64 z m 2.26058,0.0938 c -0.17366,-0.456064 -0.1369,-0.49282 0.17913,-0.179135 0.2187,0.217067 0.31702,0.475277 0.21849,0.573801 -0.0985,0.09852 -0.27745,-0.07908 -0.39762,-0.394666 z M 220.8,40.8 c 0.59705,-0.616 1.15754,-1.12 1.24554,-1.12 0.088,0 -0.32849,0.504 -0.92554,1.12 -0.59706,0.616 -1.15755,1.12 -1.24555,1.12 -0.088,0 0.32849,-0.504 0.92555,-1.12 z M 50.079999,40.96 c 0.318556,-0.352 0.651192,-0.64 0.739192,-0.64 0.088,0 -0.100636,0.288 -0.419192,0.64 -0.318556,0.352 -0.651192,0.64 -0.739192,0.64 -0.088,0 0.100636,-0.288 0.419192,-0.64 z m 134.740571,0.226199 c 0.12017,-0.315591 0.2991,-0.493191 0.39763,-0.394667 0.0985,0.09852 2e-4,0.356734 -0.2185,0.573801 -0.31603,0.313685 -0.35279,0.276929 -0.17913,-0.179134 z m 49.84985,-0.08 c -0.10422,-0.271591 -0.11799,-0.565302 -0.0306,-0.652693 0.0874,-0.08739 0.2357,0.134821 0.32958,0.493801 0.1994,0.762538 -0.0222,0.880286 -0.29898,0.158892 z M 70.782382,40.48 c 0.0065,-0.528 0.07824,-0.70526 0.159374,-0.39391 0.08113,0.311349 0.0758,0.743349 -0.01186,0.96 C 70.842243,41.26274 70.775861,41.008 70.782382,40.48 Z M 176,40.48 c 0.41335,-0.44 0.82356,-0.8 0.91156,-0.8 0.088,0 -0.17821,0.36 -0.59156,0.8 -0.41336,0.44 -0.82356,0.8 -0.91156,0.8 -0.088,0 0.1782,-0.36 0.59156,-0.8 z m -42.32534,0.120292 c 0.21707,-0.218694 0.47528,-0.317015 0.5738,-0.218491 0.0985,0.09852 -0.0791,0.277455 -0.39466,0.397625 -0.45607,0.173659 -0.49282,0.136903 -0.17914,-0.179134 z m 55.44534,0.23889 c 0,-0.06645 0.252,-0.31845 0.56,-0.56 0.50753,-0.398039 0.51885,-0.38672 0.12081,0.120818 -0.41803,0.533039 -0.68081,0.702553 -0.68081,0.439182 z M 76.394665,39.960292 c 0.217067,-0.218694 0.475277,-0.317015 0.573801,-0.218491 0.09852,0.09852 -0.07908,0.277455 -0.394667,0.397625 -0.456063,0.173659 -0.492819,0.136903 -0.179134,-0.179134 z M 103.36,40.199182 c 0,-0.06645 0.252,-0.31845 0.56,-0.56 0.50754,-0.398039 0.51885,-0.38672 0.12082,0.120818 -0.41804,0.533039 -0.68082,0.702553 -0.68082,0.439182 z M 176.48,39.04 c 0.31855,-0.352 0.65119,-0.64 0.73919,-0.64 0.088,0 -0.10064,0.288 -0.41919,0.64 -0.31856,0.352 -0.6512,0.64 -0.7392,0.64 -0.088,0 0.10064,-0.288 0.4192,-0.64 z M 47.999999,39.239182 c 0,-0.06645 0.252,-0.31845 0.56,-0.56 0.507538,-0.398039 0.518856,-0.38672 0.120818,0.120818 -0.418039,0.533039 -0.680818,0.702553 -0.680818,0.439182 z M 88.479998,38.4 c 0.318556,-0.352 0.651192,-0.64 0.739192,-0.64 0.088,0 -0.100636,0.288 -0.419192,0.64 -0.318555,0.352 -0.651192,0.64 -0.739192,0.64 -0.088,0 0.100637,-0.288 0.419192,-0.64 z M 204,38.4 c 0.31855,-0.352 0.65119,-0.64 0.73919,-0.64 0.088,0 -0.10064,0.288 -0.41919,0.64 -0.31856,0.352 -0.6512,0.64 -0.7392,0.64 -0.088,0 0.10064,-0.288 0.4192,-0.64 z m -11.68,0.199182 c 0,-0.06645 0.252,-0.31845 0.56,-0.56 0.50753,-0.398039 0.51885,-0.38672 0.12081,0.120818 -0.41803,0.533039 -0.68081,0.702553 -0.68081,0.439182 z M 137.23918,35.6 c -0.39804,-0.507538 -0.38672,-0.518857 0.12082,-0.120818 0.308,0.24155 0.56,0.49355 0.56,0.56 0,0.263371 -0.26278,0.09386 -0.68082,-0.439182 z m 0.46748,-1.825924 c 0,-0.256258 0.12235,-0.390308 0.27189,-0.297889 0.14954,0.09242 0.18904,0.302085 0.0878,0.465924 -0.25876,0.418682 -0.35967,0.371539 -0.35967,-0.168035 z M 138.72,33.92 c 0.10877,-0.176 0.26127,-0.32 0.33888,-0.32 0.0776,0 0.14112,0.144 0.14112,0.32 0,0.176 -0.1525,0.32 -0.33889,0.32 -0.18639,0 -0.24989,-0.144 -0.14111,-0.32 z M 28.799999,31.239182 c 0,-0.06645 0.252,-0.31845 0.56,-0.56 0.507538,-0.398039 0.518857,-0.38672 0.120818,0.120818 -0.418038,0.533039 -0.680818,0.702553 -0.680818,0.439182 z M 217.52,30.50807 c 0.22,-0.08877 0.58,-0.08877 0.8,0 0.22,0.08877 0.04,0.161403 -0.4,0.161403 -0.44,0 -0.62,-0.07263 -0.4,-0.161403 z M 141.44,29.28 c 0.41336,-0.44 0.82356,-0.8 0.91156,-0.8 0.088,0 -0.1782,0.36 -0.59156,0.8 -0.41336,0.44 -0.82356,0.8 -0.91156,0.8 -0.088,0 0.1782,-0.36 0.59156,-0.8 z m 85.44,0.03424 c 0,-0.06917 0.216,-0.20865 0.48,-0.309957 0.264,-0.101306 0.48,-0.04471 0.48,0.125764 0,0.170476 -0.216,0.309957 -0.48,0.309957 -0.264,0 -0.48,-0.05659 -0.48,-0.125764 z m 4,-0.514236 c -0.10878,-0.176 -0.0453,-0.32 0.14111,-0.32 0.18639,0 0.33889,0.144 0.33889,0.32 0,0.176 -0.0635,0.32 -0.14112,0.32 -0.0776,0 -0.23011,-0.144 -0.33888,-0.32 z m 7.52,0 c -0.28842,-0.186387 -0.32789,-0.312156 -0.0989,-0.3151 0.20961,-0.0027 0.47011,0.1391 0.57889,0.3151 0.24553,0.397288 0.13475,0.397288 -0.48,0 z m -4.8,-0.32 c 0,-0.176 0.144,-0.32 0.32,-0.32 0.176,0 0.32,0.144 0.32,0.32 0,0.176 -0.144,0.32 -0.32,0.32 -0.176,0 -0.32,-0.144 -0.32,-0.32 z m 3.84,-0.32 c 0,-0.176 0.15249,-0.32 0.33888,-0.32 0.18639,0 0.24989,0.144 0.14112,0.32 -0.10878,0.176 -0.26128,0.32 -0.33889,0.32 -0.0776,0 -0.14111,-0.144 -0.14111,-0.32 z m 18.74057,-0.0938 c 0.12017,-0.315591 0.2991,-0.493191 0.39762,-0.394667 0.0985,0.09852 2.1e-4,0.356734 -0.21849,0.573801 -0.31603,0.313686 -0.35279,0.276929 -0.17913,-0.179134 z M 142.88,27.84 c 0.10877,-0.176 0.34177,-0.32 0.51777,-0.32 0.176,0 0.231,0.144 0.12223,0.32 -0.10878,0.176 -0.34177,0.32 -0.51777,0.32 -0.176,0 -0.23101,-0.144 -0.12223,-0.32 z m 105.43999,-0.01889 c 0,-0.186387 0.144,-0.249888 0.32,-0.141114 0.176,0.108774 0.32,0.04979 0.32,-0.131072 0,-0.180863 0.21518,-0.246272 0.47817,-0.145354 0.26299,0.100918 0.39849,0.312399 0.30111,0.469957 -0.2484,0.401926 -1.41928,0.358683 -1.41928,-0.05242 z m 3.14,0.120289 c 0.231,-0.09244 0.507,-0.08107 0.61334,0.02526 0.10633,0.106334 -0.0827,0.181965 -0.42,0.168071 -0.37278,-0.01535 -0.44861,-0.09118 -0.19334,-0.193334 z m 1.34,-0.227167 c 0,-0.06917 0.22348,-0.21152 0.49662,-0.316334 0.28478,-0.109279 0.41323,-0.05563 0.30112,0.125763 -0.18792,0.304065 -0.79774,0.449743 -0.79774,0.190571 z m -221.759991,-0.96 c 0,-0.06917 0.223479,-0.21152 0.49662,-0.316334 0.284776,-0.109279 0.413223,-0.05563 0.301115,0.125763 -0.187923,0.304065 -0.797735,0.449743 -0.797735,0.190571 z m 3.2,-2.114236 c -0.288413,-0.186387 -0.327882,-0.312156 -0.09888,-0.3151 0.209613,-0.0027 0.470111,0.1391 0.578885,0.3151 0.245538,0.397288 0.13476,0.397288 -0.48,0 z m 3.52,-1.901115 c 0,-0.165613 0.142351,-0.389092 0.316335,-0.49662 0.181395,-0.112108 0.235042,0.01634 0.125763,0.301115 -0.212733,0.554373 -0.442098,0.655803 -0.442098,0.195505 z m 1.92,-0.01889 c -0.288413,-0.186387 -0.327882,-0.312156 -0.09889,-0.3151 0.209613,-0.0027 0.470111,0.1391 0.578885,0.3151 0.245538,0.397288 0.13476,0.397288 -0.48,0 z"
         id="path3" />
      <path
         style="fill:#494949;fill-opacity:1"
         d="m 230.43739,64.118178 c -1.12025,-0.784658 -1.64422,-2.382083 -1.5836,-4.827901 l 0.0538,-2.170278 0.21242,1.92 c 0.13243,1.197085 0.24692,1.558543 0.30406,0.96 l 0.0917,-0.96 0.24428,0.96 c 0.24308,0.955295 0.24446,0.955816 0.28213,0.106172 0.0208,-0.469605 0.13434,-1.105228 0.25225,-1.412494 0.14616,-0.380892 0.0952,-0.485038 -0.16,-0.327287 -0.24859,0.153635 -0.37438,-0.04377 -0.37438,-0.587505 0,-0.450387 0.144,-0.818886 0.32,-0.818886 0.176,0 0.29713,-0.108 0.26919,-0.24 -0.0279,-0.132 0.0385,-0.456 0.14758,-0.72 0.10911,-0.264 0.48621,-1.633431 0.838,-3.043181 0.73592,-2.949076 3.07442,-9.909569 4.70338,-13.999521 0.61395,-1.541487 1.0405,-2.925313 0.94788,-3.075169 -0.0926,-0.149857 0.39846,-1.44464 1.09128,-2.877297 0.69281,-1.432657 1.15109,-2.604831 1.0184,-2.604831 -0.30664,0 -1.59208,2.240014 -3.39722,5.92 -0.777,1.584 -1.42302,2.732199 -1.43561,2.551554 -0.0126,-0.180646 1.04898,-2.517178 2.35903,-5.192294 1.31005,-2.675117 2.28205,-4.919292 2.16,-4.987057 -0.12205,-0.06776 -4.18191,0.280395 -9.02191,0.773688 -10.44903,1.064966 -12.65239,1.140342 -12.92037,0.441995 -0.10387,-0.270662 -0.003,-0.563477 0.22442,-0.650699 0.71397,-0.273975 10.41436,-0.310521 10.02565,-0.03777 -0.20571,0.144346 0.0561,0.186132 0.5903,0.0942 0.528,-0.09087 2.22,-0.260637 3.76,-0.377265 1.54,-0.116628 2.8,-0.346033 2.8,-0.509788 0,-0.17175 0.72997,-0.212473 1.72509,-0.09624 1.10182,0.128699 1.80234,0.07652 1.93889,-0.144413 0.11758,-0.190253 0.52929,-0.345952 0.9149,-0.345998 0.55223,-6.6e-5 1.06429,-0.645614 2.41135,-3.04 1.74434,-3.10053 2.19773,-3.453798 3.32977,-2.594462 0.82811,0.628628 0.69969,1.175279 -0.75252,3.203268 -0.72189,1.0081 -1.25754,1.887894 -1.19033,1.955097 0.0672,0.0672 1.41383,0.254439 2.99251,0.41608 l 2.87033,0.293893 -3.0704,0.0431 c -2.52017,0.03538 -3.16429,0.146851 -3.59433,0.622039 -0.76066,0.840517 -5.38473,10.583426 -6.71148,14.141065 -2.71223,7.272779 -4.38913,14.120713 -4.37888,17.881916 0.006,2.254184 0.29927,2.800329 1.2344,2.299863 0.62476,-0.334364 0.6807,-0.284492 0.6807,0.606962 0,0.797372 -0.13048,0.971258 -0.7288,0.971258 -0.40084,0 -1.06405,-0.234819 -1.47381,-0.521821 z m -52.34644,-0.870599 c -0.48745,-0.356434 -0.55857,-0.70788 -0.40469,-2 0.32284,-2.710816 4.82335,-15.272818 6.89069,-19.233545 0.34852,-0.667719 1.54928,-3.048324 2.66836,-5.290233 1.64705,-3.299617 2.16439,-4.076922 2.7155,-4.08 1.34712,-0.0075 1.46332,0.730788 0.38126,2.4223 -1.38096,2.158753 -5.13576,9.992827 -4.99372,10.418959 0.0634,0.190315 0.52559,-0.245968 1.02701,-0.969517 0.50142,-0.723549 0.97016,-1.315543 1.04165,-1.315543 0.20773,0 -1.60679,3.028777 -1.88515,3.146666 -0.13853,0.05867 -0.25186,0.236504 -0.25186,0.395193 0,0.158689 -0.44413,1.010319 -0.98694,1.89251 -0.54282,0.882191 -0.93287,1.766224 -0.86677,1.964519 0.0661,0.198294 0.96776,-0.989335 2.00368,-2.639177 3.70366,-5.898548 8.99111,-11.873997 11.40494,-12.888936 1.31464,-0.552763 2.32961,-0.155241 2.85748,1.119155 0.83607,2.018446 -1.96969,6.978675 -6.76181,11.954023 -4.00126,4.154245 -6.54735,5.440253 -8.59802,4.342771 -0.40819,-0.218456 -0.68141,-0.194242 -0.90269,0.08 -0.73102,0.905976 -3.24725,7.266241 -3.60537,9.113275 -0.3975,2.050176 -0.69977,2.323502 -1.73355,1.56758 z m 2.6415,-9.24758 c 0.91028,-2.364438 1.11273,-2.915044 1.20597,-3.28 0.045,-0.176 0.59922,-1.646571 1.23167,-3.267936 1.18316,-3.033191 1.49997,-4.465173 0.63468,-2.868787 -0.55003,1.014753 -3.96477,10.304933 -3.96477,10.786589 0,0.660532 0.27078,0.244888 0.89245,-1.369866 z m 8.54704,-3.228786 c 0.35173,-0.263387 0.53931,-0.579077 0.41685,-0.701531 -0.12245,-0.122455 -0.60964,0.08177 -1.08265,0.453836 -0.473,0.372065 -0.99487,0.676481 -1.15971,0.676481 -0.33021,0 -1.21398,0.803444 -1.21398,1.103647 0,0.224106 2.12356,-0.846538 3.03949,-1.532433 z m -0.48192,-1.094487 c 1.49467,-1.0102 3.23326,-2.351324 3.86355,-2.980276 1.73927,-1.735594 4.14175,-5.250312 4.9771,-7.281304 0.83235,-2.023659 1.01142,-4.215146 0.34443,-4.215146 -1.36279,0 -6.03108,4.270883 -8.74441,8 C 187.54186,45.53146 184,51.21785 184,51.6099 c 0,0.698824 2.23704,-0.202588 4.79757,-1.933174 z m -58.08352,12.277331 c -1.36517,-0.59484 -2.96353,-2.532699 -3.221,-3.905156 -0.51598,-2.750395 0.61702,-7.721774 2.90311,-12.738263 0.60922,-1.336851 1.16681,-2.430638 1.23908,-2.430638 0.0723,0 -0.48142,1.482932 -1.23043,3.295405 -1.5924,3.853314 -2.29117,6.166839 -2.53246,8.384594 -0.15511,1.425627 -0.13347,1.504095 0.19856,0.72 0.61708,-1.457276 0.87624,-1.000259 0.67214,1.185321 -0.22539,2.413742 0.20567,3.761011 1.37363,4.293169 1.09082,0.497009 3.87621,0.45342 5.67806,-0.08886 2.26125,-0.680537 6.14842,-3.252198 8.92379,-5.903774 1.36481,-1.303927 2.48147,-2.229989 2.48147,-2.057914 0,0.172074 -0.28461,0.570426 -0.63246,0.885225 -0.34785,0.3148 -0.56281,0.685045 -0.47769,0.822766 0.4352,0.704173 -7.63292,6.585861 -10.22686,7.455412 -1.87857,0.629743 -3.82185,0.660959 -5.14894,0.08271 z m 14.72953,-6.930981 c 0.63572,-0.715416 0.63571,-0.715832 -0.007,-0.379279 -0.35397,0.185308 -0.92997,0.659214 -1.28,1.053126 -0.63572,0.715416 -0.63572,0.715832 0.007,0.379279 0.35397,-0.185308 0.92997,-0.659214 1.28,-1.053126 z M 20.719993,59.174364 c -0.308004,-0.179396 -0.782373,-0.756182 -1.054154,-1.281748 -0.468804,-0.906568 -0.447252,-1.049349 0.420253,-2.784095 0.715277,-1.430336 1.212753,-1.981289 2.284476,-2.530049 0.753541,-0.385841 2.145222,-1.501841 3.092623,-2.48 2.736235,-2.82507 2.371952,-2.061987 -0.487661,1.021527 C 22.392242,53.905553 20.8,56.448174 20.8,57.78782 c 0,0.566509 0.220125,0.727858 1.139425,0.835181 0.626684,0.07316 1.211183,0.01692 1.298885,-0.12499 0.0877,-0.141906 0.330962,-0.255807 0.540575,-0.253112 0.233971,0.003 0.195793,0.13465 -0.09888,0.340963 -0.366116,0.256328 -0.290193,0.283385 0.32,0.11404 1.420248,-0.394157 3.227988,-1.435731 3.034682,-1.748507 -0.107493,-0.173927 0.04709,-0.21388 0.361192,-0.09335 0.356686,0.136874 0.47282,0.08727 0.3314,-0.141554 -0.119743,-0.193748 -0.04912,-0.456468 0.156948,-0.583823 0.233993,-0.144615 0.288935,-0.09284 0.146335,0.137889 -0.125581,0.203193 -0.09346,0.369442 0.07137,0.369442 0.349397,0 0.963397,-0.679257 0.964189,-1.066666 3e-4,-0.146667 0.107632,-0.362667 0.238516,-0.48 0.130884,-0.117334 0.134385,-0.03333 0.0078,0.186666 -0.503892,0.875614 0.437682,0.310261 2.319559,-1.392739 1.089572,-0.986007 1.942112,-1.979516 1.894532,-2.207798 -0.04758,-0.228282 0.873556,-1.689549 2.04697,-3.24726 2.630196,-3.491594 5.334561,-8.567604 6.708797,-12.592202 0.925921,-2.711661 1.040179,-3.437464 1.057879,-6.72 0.0254,-4.710278 -0.322948,-5.555412 -2.349721,-5.700705 -1.057303,-0.07579 -1.890391,0.138359 -3.367968,0.865767 -3.366616,1.65738 -10.102467,7.706279 -10.102467,9.072173 0,0.239121 0.168101,0.602865 0.373558,0.808322 0.284743,0.284743 9.1e-4,0.775464 -1.193814,2.064 -0.862055,0.929743 -1.652666,1.729946 -1.756915,1.778229 -0.104249,0.04828 -0.448139,-0.197959 -0.7642,-0.547202 -0.839917,-0.928098 -0.430492,-2.493845 1.234169,-4.719776 1.549404,-2.071813 5.772391,-6.318954 5.461937,-5.493176 -0.41604,1.106623 0.454805,0.81707 2.748423,-0.91384 2.952195,-2.227914 5.361759,-3.358616 7.271981,-3.41242 1.372204,-0.03865 1.529197,0.0442 2.385513,1.258898 0.800431,1.135424 0.938475,1.672967 1.088859,4.24 0.110685,1.889394 0.05611,2.93973 -0.152732,2.93973 -0.178722,0 -0.471524,0.612 -0.650673,1.36 -0.571763,2.387291 -0.92017,3.575331 -1.337275,4.56 -0.22366,0.528 -0.454755,1.248 -0.513544,1.6 -0.105386,0.631002 -0.100199,0.631267 0.368912,0.01884 0.978961,-1.278041 0.366785,0.333638 -1.694517,4.461162 -2.019041,4.042899 -7.173498,10.719999 -8.275416,10.719999 -0.27532,0 -0.376883,0.153962 -0.243708,0.369443 0.132564,0.214494 0.08864,0.28311 -0.104734,0.163599 -0.183184,-0.113214 -0.415722,0.110249 -0.516751,0.496583 -0.101028,0.386335 -0.272285,0.61383 -0.38057,0.505545 -0.108284,-0.108285 -0.702358,0.294004 -1.320164,0.893975 -0.617805,0.59997 -1.25492,1.090855 -1.41581,1.090855 -0.564761,0 -0.77532,0.100183 -1.092529,0.519817 -0.824175,1.090297 -5.04846,1.795155 -6.320006,1.054548 z M 40.892075,41.44 C 41.276858,40.648 41.482299,40 41.348609,40 c -0.198312,0 -0.793626,0.988076 -1.590593,2.64 -0.06368,0.132 0.008,0.24 0.159333,0.24 0.151316,0 0.589943,-0.648 0.974726,-1.44 z m 59.518585,14.502365 c -0.800903,-0.615791 -1.093584,-2.895591 -0.441237,-3.43699 0.280817,-0.233057 0.510577,-0.61106 0.510577,-0.840006 0,-0.538041 1.5514,-2.38537 2.00325,-2.38537 0.19049,0 0.60579,-0.234789 0.92288,-0.521753 0.54829,-0.496189 0.50867,-0.57357 -0.80853,-1.579328 -1.33812,-1.021735 -2.4376,-2.729983 -2.4376,-3.78728 0,-0.696782 -0.261424,-0.643016 -1.013088,0.208362 -0.349621,0.396 -0.52795,0.504 -0.396288,0.24 0.159935,-0.320691 0.0087,-0.277679 -0.45562,0.129596 -0.766325,0.67215 -0.918194,0.998679 -0.295006,0.634283 1.062909,-0.621514 -1.113798,1.399223 -2.82659,2.624053 -2.837922,2.029418 -5.117311,3.005242 -7.028466,3.008941 -1.449712,0.0028 -1.736368,-0.121107 -2.8,-1.210366 -0.806313,-0.825738 -1.184944,-1.505302 -1.184944,-2.126727 v -0.913235 l -0.72,0.77432 c -1.683605,1.810624 -3.620417,2.410958 -4.772021,1.479134 -1.291562,-1.04507 -1.547979,-1.918225 -1.547979,-5.271201 0,-1.841828 -0.132489,-3.288798 -0.301132,-3.288798 -0.579226,0 -3.71006,3.856751 -4.978867,6.133268 -0.704,1.263131 -1.444113,2.350584 -1.644694,2.416564 -0.200581,0.06598 -0.679803,-0.389895 -1.064938,-1.013055 -0.648976,-1.050066 -0.674989,-1.295788 -0.355306,-3.356195 0.189716,-1.222747 0.338485,-2.987593 0.330598,-3.921879 L 69.091319,38.24 67.64277,39.84 c -1.898537,2.097035 -5.466641,7.42242 -7.18097,10.717576 -1.429676,2.748018 -1.919733,3.211482 -2.705876,2.559041 -0.648583,-0.538275 -0.597477,-1.783129 0.164075,-3.996618 0.352,-1.023105 0.64,-1.924566 0.64,-2.003245 0,-0.07868 -0.529527,0.321878 -1.176727,0.890127 -3.231856,2.837606 -6.50907,2.440661 -6.499366,-0.787221 0.0023,-0.775086 0.454389,-2.331613 1.12,-3.856375 0.613851,-1.406193 1.116093,-2.679602 1.116093,-2.829798 0,-0.573755 -3.309793,2.532982 -5.18443,4.866365 -2.593338,3.227957 -4.135282,4.840147 -4.629254,4.840147 -0.222089,0 -0.553804,-0.280287 -0.737143,-0.62286 -0.563342,-1.052615 1.4401,-5.422162 2.497494,-5.447084 0.234666,-0.0055 0.36935,-0.182004 0.299297,-0.392163 -0.262232,-0.786698 2.900572,-4.932662 4.788462,-6.276958 0.846702,-0.602905 1.148342,-0.668452 1.705053,-0.370509 0.98187,0.52548 2.52022,2.301978 2.531141,2.922978 0.0052,0.293373 -0.56662,2.141341 -1.27062,4.106597 -0.704,1.965255 -1.28,3.849223 -1.28,4.186596 0,1.503303 2.95086,0.290718 6.428426,-2.641609 1.264381,-1.066142 1.722519,-1.785795 2.782392,-4.370639 0.697833,-1.701892 1.262876,-3.318908 1.255651,-3.59337 C 62.283482,36.867763 64.929121,33.28 65.596021,33.28 c 1.381645,0 1.268213,0.954409 -0.513536,4.320831 -1.756646,3.318995 -2.227323,4.789843 -1.100546,3.439169 0.330356,-0.396 0.757565,-0.72 0.949353,-0.72 0.191789,0 0.348707,-0.195727 0.348707,-0.434948 0,-0.239221 0.588238,-1.103221 1.307195,-1.92 0.945417,-1.07405 1.543218,-1.483696 2.16,-1.480152 1.88124,0.01081 2.325538,1.213552 1.95402,5.289652 -0.143035,1.569297 -0.226026,2.887303 -0.184426,2.928903 0.0416,0.0416 0.788341,-0.872408 1.659423,-2.031129 C 73.99302,40.255594 76.018399,38.4 76.839453,38.4 c 1.198171,0 1.560545,1.205449 1.560545,5.191202 0,3.74255 0.0052,3.768797 0.751988,3.768797 1.052579,0 2.89424,-1.425627 5.328012,-4.124406 1.144,-1.268567 2.740171,-3.040031 3.547047,-3.936587 1.384237,-1.538087 1.532554,-1.617812 2.627549,-1.412389 0.662042,0.1242 1.592187,0.649396 2.16554,1.222749 0.848596,0.848596 0.97744,1.175102 0.827742,2.097583 -0.09751,0.600899 -0.563189,1.598477 -1.034837,2.216839 -0.835354,1.095207 -4.96039,4.018636 -6.246274,4.426759 -1.227823,0.389696 -0.422518,0.950615 1.296665,0.903165 1.225265,-0.03382 2.324801,-0.366412 4.081382,-1.234562 1.32237,-0.65355 2.640756,-1.392365 2.929748,-1.64181 0.288991,-0.249446 1.416308,-1.167544 2.505148,-2.04022 1.088841,-0.872675 2.528841,-2.273015 3.200002,-3.111867 2.71673,-3.395522 6.55497,-6.429862 9.42986,-7.454835 1.02275,-0.364634 1.23646,-0.3501 1.70233,0.115768 0.90756,0.907558 0.49467,1.857654 -0.99798,2.29644 -3.10436,0.912574 -8.77633,5.420242 -9.26371,7.362128 -0.2612,1.040706 0.45894,1.875223 2.52022,2.920509 l 1.53043,0.77609 1.86886,-1.438054 c 1.02787,-0.79093 1.9419,-1.365012 2.03117,-1.275738 0.0893,0.08927 1.49423,-0.780407 3.12213,-1.932623 1.6279,-1.152216 3.12118,-2.09814 3.3184,-2.102054 0.19722,-0.0039 0.71858,-0.288711 1.15858,-0.632884 0.44,-0.344173 0.99987,-0.628971 1.24415,-0.632885 0.24429,-0.0039 -2.11264,1.825223 -5.23762,4.064747 -3.12497,2.239525 -5.75062,4.251291 -5.83478,4.470592 -0.0841,0.219301 0.14878,0.782382 0.51762,1.251292 0.4665,0.593062 0.67063,1.314027 0.67063,2.368653 0,1.381014 -0.12504,1.631345 -1.40341,2.809704 -2.35281,2.168745 -5.15814,3.163514 -6.34593,2.250262 z m 3.32276,-2.110757 c 1.2384,-0.582151 3.46658,-3.016324 3.46658,-3.787062 0,-0.250195 -0.50729,-0.69681 -1.12731,-0.992476 l -1.12731,-0.537575 -1.93697,1.902752 c -1.956,1.921451 -2.9907,3.413799 -2.62232,3.782181 0.37998,0.379978 2.17651,0.182567 3.34733,-0.36782 z M 59.273957,47.999999 c 1.256111,-3.154644 1.323464,-3.862079 0.114248,-1.2 -1.356073,2.985384 -1.760726,4.08 -1.508275,4.08 0.136,0 0.763313,-1.296 1.394027,-2.88 z M 47.33746,44.24 c 1.276512,-1.452 2.402112,-2.64 2.501331,-2.64 0.09922,0 -0.09392,0.324 -0.429196,0.72 l -0.609596,0.72 0.721962,-0.611372 c 0.397079,-0.336254 0.655306,-0.678027 0.573839,-0.759494 -0.08147,-0.08147 0.188936,-0.598351 0.600897,-1.148629 0.411961,-0.550278 0.850517,-1.334209 0.974569,-1.742069 l 0.225549,-0.741564 -1.068408,0.705336 c -1.099171,0.725646 -4.003272,4.215466 -5.501794,6.611433 -1.665477,2.66291 -0.971283,2.278454 2.010847,-1.113641 z m 40.321279,1.375606 c 2.086586,-1.531696 4.431936,-4.107983 4.695411,-5.157751 0.302518,-1.205328 -0.575526,-1.893803 -1.678334,-1.315983 -1.655871,0.867598 -5.834332,7.578127 -4.71869,7.578127 0.10842,0 0.874145,-0.496977 1.701613,-1.104393 z M 62.061782,41.44 c 0.955671,-2.18777 0.95967,-2.217616 0.171527,-1.28 -0.443828,0.528 -0.896097,1.32 -1.005044,1.76 -0.108946,0.44 -0.409528,1.232 -0.667961,1.76 -0.42423,0.86674 -0.42165,0.91337 0.02656,0.48 0.273039,-0.264 0.936753,-1.488 1.474921,-2.72 z m -13.101783,1.880817 c 0,-0.425213 -0.08688,-0.44708 -0.48,-0.120817 -0.264,0.2191 -0.48,0.452732 -0.48,0.519182 0,0.06645 0.216,0.120818 0.48,0.120818 0.264,0 0.48,-0.233633 0.48,-0.519183 z m -17.455056,9.855841 c 0.695718,-0.735162 1.308939,-1.336659 1.362711,-1.336659 0.289171,0 -0.761686,1.225007 -1.627027,1.896659 -0.838592,0.650891 -0.79579,0.560208 0.264316,-0.56 z m 97.312847,-0.01661 c -0.16556,-0.510855 -0.10698,-0.846042 0.1787,-1.022601 0.58121,-0.359209 0.62252,-0.252604 0.32496,0.838637 -0.25498,0.935082 -0.25969,0.936804 -0.50366,0.183964 z m 18.71285,-0.866922 c -0.0166,-0.542733 7.85869,-8.474123 8.15122,-8.209231 0.14341,0.129857 0.16173,0.06349 0.0407,-0.147477 C 155.23105,43.079604 160.82181,36.8 162.07615,36.8 c 0.33165,0 3.04385,2.858791 3.04385,3.208358 0,0.155459 -0.576,1.897365 -1.28,3.870902 -0.704,1.973536 -1.28,3.924059 -1.28,4.334494 0,1.536398 2.38404,0.668215 5.96162,-2.17101 1.58967,-1.261591 2.09945,-1.906229 2.68849,-3.39976 1.22842,-3.114676 3.23742,-6.802984 3.70555,-6.802984 0.66256,0 0.54691,0.668378 -0.50595,2.924072 -0.98196,2.103789 -2.59281,6.355928 -2.40784,6.355928 0.0577,0 0.90217,-1.116 1.87668,-2.48 1.97057,-2.758179 3.55653,-4.56 4.01371,-4.56 0.59441,0 1.55781,1.618043 1.76018,2.956248 0.11343,0.750063 0.32805,1.559161 0.47694,1.797995 0.3479,0.558054 1.33797,0.250682 2.59234,-0.804801 0.52705,-0.443484 0.95828,-0.638457 0.95828,-0.433273 0,0.598505 -1.81427,2.243831 -2.47423,2.243831 -1.21126,0 -2.64288,-1.809975 -2.65067,-3.351202 -0.008,-1.6608 -0.38542,-1.873061 -1.57813,-0.888484 -1.22099,1.007927 -2.03514,2.22493 -4.07199,6.086842 -0.79632,1.509831 -1.8072,3.314388 -2.2464,4.010127 -0.78759,1.247629 -0.80697,1.256548 -1.41325,0.650274 -0.57183,-0.571828 -0.58292,-0.720319 -0.15902,-2.128814 l 0.45568,-1.514108 -1.0999,0.965718 c -2.07903,1.825413 -4.68725,2.736257 -5.74064,2.004746 -0.63173,-0.438694 -1.42148,-1.814622 -1.4156,-2.466302 0.005,-0.546888 0.44811,-1.719478 2.48239,-6.568108 0.40394,-0.962786 -3.7124,2.776714 -5.21043,4.733431 -2.56864,3.35512 -4.02015,4.865879 -4.67505,4.865879 -0.8956,0 -1.06306,-0.764276 -0.52534,-2.397637 l 0.46988,-1.42727 -1.15365,1.008527 c -0.63451,0.554689 -1.38539,1.385456 -1.66863,1.846148 -0.28323,0.460692 -0.92848,1.108561 -1.43387,1.43971 -0.5054,0.331148 -1.16887,0.900986 -1.47438,1.266305 -0.30552,0.36532 -0.56027,0.508125 -0.56613,0.317345 z m 23.08739,-5.859296 c 0.47221,-1.108891 0.4967,-1.321435 0.11586,-1.005364 -0.26561,0.220443 -0.6286,0.925219 -0.80663,1.566169 -0.34178,1.230478 -0.40516,2.139719 -0.0924,1.325363 0.1014,-0.264 0.45382,-1.112776 0.78315,-1.886168 z m -11.18681,-3.545403 c -0.56325,0.653014 -0.61776,0.844905 -0.24,0.844905 0.26883,0 0.48878,-0.146719 0.48878,-0.326042 0,-0.179324 0.324,-0.682544 0.72,-1.118267 0.396,-0.435724 0.54,-0.688506 0.32,-0.561739 -0.64828,0.373544 -0.45738,-0.296164 0.27276,-0.956934 0.70374,-0.636881 1.70208,-2.342175 1.49337,-2.550885 -0.47069,-0.470686 -3.77834,3.043166 -6.08613,6.465542 -1.86967,2.772655 -1.41852,2.750429 1.2838,-0.06325 1.36191,-1.418031 2.14825,-2.198031 1.74742,-1.733333 z m 12.55845,0.04519 c 0.19755,-1.025789 -0.34261,-0.558514 -0.76931,0.665502 -0.32804,0.941014 -0.31516,0.992816 0.1349,0.542759 0.27364,-0.273649 0.55913,-0.817366 0.63441,-1.208261 z m -42.54307,7.613614 c 0.24633,-0.476353 0.38162,-0.956353 0.30063,-1.066667 -0.081,-0.110314 -0.0518,-0.129121 0.0649,-0.04179 0.11666,0.08733 0.56629,-0.740672 0.99918,-1.84 0.43288,-1.099327 0.99192,-2.214776 1.24229,-2.478776 0.25038,-0.264 0.0325,0.456 -0.48413,1.599999 -0.51665,1.144 -1.11474,2.668 -1.32908,3.386667 -0.21435,0.718667 -0.5814,1.306667 -0.81568,1.306667 -0.34923,0 -0.34528,-0.156036 0.0219,-0.866096 z m 84.59656,0.272207 c -0.66955,-1.237201 -0.43424,-2.265153 1.78082,-7.779444 l 0.51417,-1.28 -1.16105,1.28 c -0.63858,0.704 -1.04991,1.064 -0.91407,0.8 0.16304,-0.316864 0.0108,-0.272819 -0.44803,0.129596 -0.76632,0.67215 -0.91819,0.998679 -0.295,0.634283 1.06291,-0.621514 -1.1138,1.399223 -2.82659,2.624053 -2.83793,2.029418 -5.11732,3.005242 -7.02847,3.008941 -1.45985,0.0028 -1.73317,-0.117827 -2.84403,-1.255457 -1.14273,-1.17026 -1.21744,-1.360935 -1.06458,-2.717062 0.22599,-2.004984 1.69001,-4.778501 3.62002,-6.857953 1.53464,-1.65347 1.67556,-1.730401 2.78755,-1.52179 0.67298,0.126252 1.59873,0.647249 2.17623,1.224755 0.8486,0.848596 0.97744,1.175102 0.82774,2.097583 -0.0975,0.600899 -0.56319,1.598477 -1.03483,2.216839 -0.83536,1.095207 -4.96039,4.018636 -6.24628,4.426759 -1.22782,0.389696 -0.42252,0.950615 1.29667,0.903165 1.2295,-0.03393 2.33085,-0.368695 4.12682,-1.254365 1.34736,-0.664443 2.59375,-1.373689 2.76975,-1.576103 0.176,-0.202414 0.73208,-0.623807 1.23573,-0.936429 1.91507,-1.188692 6.04746,-5.494954 7.30602,-7.613432 C 219.3319,36.178022 220.01852,35.2 220.14756,35.2 c 0.12905,0 0.3681,0.299113 0.53123,0.664695 0.23522,0.527149 -0.12743,1.522892 -1.75251,4.811924 -1.12701,2.280975 -1.98835,4.207986 -1.91409,4.282246 0.0743,0.07426 1.33892,-1.191105 2.81035,-2.811923 1.47143,-1.620819 3.01292,-3.160059 3.42553,-3.420535 0.69339,-0.437732 0.80898,-0.413501 1.52648,0.32 0.63654,0.650724 0.84044,1.334221 1.13264,3.796631 0.40405,3.405003 0.71574,4.196961 1.65176,4.196961 0.81281,0 4.60834,-3.587915 5.41626,-5.119999 l 0.59062,-1.12 -0.12625,1.092397 c -0.12692,1.098236 -1.39022,3.934742 -1.84158,4.134934 -0.1331,0.05903 -0.14601,0.275032 -0.0287,0.48 0.11731,0.204968 0.0962,0.266637 -0.047,0.137042 -0.14314,-0.129594 -0.88767,0.342701 -1.65451,1.049544 -1.56575,1.44326 -1.95561,1.404896 -3.42102,-0.336642 -0.95158,-1.130928 -1.39927,-2.551079 -1.6888,-5.357275 -0.13212,-1.280544 -0.35073,-2 -0.6077,-2 -0.88194,0 -6.50666,6.784509 -8.20628,9.898362 -0.9258,1.696165 -1.36595,1.909447 -1.90083,0.921082 z M 203.17874,45.6156 c 2.08658,-1.531696 4.43193,-4.107983 4.69541,-5.157751 0.30252,-1.205328 -0.57553,-1.893803 -1.67834,-1.315983 -1.65587,0.867598 -5.83433,7.578127 -4.71869,7.578127 0.10842,0 0.87415,-0.496977 1.70162,-1.104393 z m 49.80018,4.364021 c -0.10131,-0.319206 0.0135,-1.219206 0.25502,-2 0.73079,-2.362045 2.23672,-5.887617 2.35864,-5.521873 0.0629,0.188691 -0.24686,1.159844 -0.68834,2.158117 -0.90516,2.046728 -1.58378,4.280272 -1.16577,3.836907 0.68672,-0.72837 2.23456,-5.180868 2.17069,-6.244182 l -0.0692,-1.151403 -1.22102,1.384395 c -0.67157,0.761416 -1.37979,1.351548 -1.57384,1.311403 -0.19405,-0.04015 -0.52137,0.250017 -0.72738,0.644805 -0.64844,1.242609 -1.52701,2.053474 -3.94898,3.644658 -2.57106,1.689134 -3.96348,2.193037 -6.0675,2.195761 -1.14981,0.0015 -1.57706,-0.189538 -2.5733,-1.150526 -1.14796,-1.107335 -1.18734,-1.216621 -1.00895,-2.8 0.35349,-3.137697 3.77072,-8.285811 5.61209,-8.454741 1.94496,-0.178432 4.09241,1.884065 3.75329,3.604823 -0.27064,1.373325 -3.35398,4.295892 -5.92322,5.61437 -1.18735,0.609322 -2.15935,1.213115 -2.16,1.341762 -0.002,0.492325 1.6552,0.616404 3.21999,0.241017 2.04975,-0.491727 4.69777,-1.893023 7.17882,-3.798937 2.60497,-2.001096 6.79592,-6.326289 7.55402,-7.795983 0.34045,-0.66 0.76458,-1.2 0.94253,-1.2 0.63754,0 0.6453,0.886446 0.0171,1.953757 -0.76574,1.301007 -3.00476,7.0218 -2.82038,7.20618 0.0713,0.07134 0.6783,-0.70046 1.34879,-1.715113 1.62558,-2.459967 3.98145,-5.204824 4.46721,-5.204824 0.74174,0 1.45091,1.174165 1.82041,3.014037 0.20373,1.014454 0.55264,1.914388 0.77536,1.999853 0.48624,0.186587 1.61438,-0.363061 2.65567,-1.293879 L 267.92142,41.12 267.3974,42.150513 c -0.633,1.244804 -1.59005,1.810909 -2.62316,1.551616 -0.99631,-0.250058 -1.74572,-1.426179 -2.20329,-3.457832 l -0.36795,-1.633756 -1.2615,1.144477 c -1.2983,1.177862 -2.02936,2.313467 -4.94731,7.684981 -1.69834,3.126387 -2.59054,3.877844 -3.01527,2.539628 z m -10.84344,-4.418724 c 3.28104,-2.462294 4.58452,-4.074615 4.58452,-5.670776 0,-0.918488 -0.75067,-1.304678 -1.62571,-0.836368 -0.90939,0.486687 -3.09124,3.359961 -4.16169,5.480504 C 240.41967,45.55038 240,46.457855 240,46.550874 c 0,0.411311 0.70175,0.08599 2.13548,-0.989971 z M 27.839999,48.199182 c 0,-0.06645 0.252,-0.31845 0.56,-0.56 0.507538,-0.398039 0.518857,-0.38672 0.120818,0.120817 -0.418038,0.53304 -0.680818,0.702554 -0.680818,0.439183 z M 132.3925,43.859971 c -0.0951,-0.36347 -0.057,-0.589282 0.0845,-0.501805 0.14154,0.08748 0.64795,-0.596324 1.12535,-1.519558 1.08001,-2.088618 4.20083,-6.784651 4.8799,-7.343011 0.278,-0.228578 -0.37131,0.880403 -1.44291,2.464403 -1.0716,1.584 -2.51664,3.933185 -3.21121,5.220412 -1.00643,1.86521 -1.29793,2.206231 -1.43566,1.679559 z M 233.6098,40.48 c 0,-0.176 0.13959,-0.536 0.3102,-0.8 0.17061,-0.264 0.3102,-0.336 0.3102,-0.16 0,0.176 -0.13959,0.536 -0.3102,0.8 -0.17061,0.264 -0.3102,0.336 -0.3102,0.16 z M 134.08,39.584341 c 0,-0.307374 1.63627,-2.784341 1.83932,-2.784341 0.14308,0 -0.36616,0.864592 -1.40839,2.391202 -0.23702,0.347161 -0.43093,0.524073 -0.43093,0.393139 z M 146.56,36.48 c -0.18839,-0.352 -0.30145,-0.650701 -0.25126,-0.66378 0.0502,-0.01308 0.45126,-0.08349 0.89126,-0.156464 2.42495,-0.402193 7.04,-8.719107 7.04,-12.686988 0,-0.685247 -0.15173,-0.892768 -0.65275,-0.892768 -1.3367,0 -5.17091,2.394408 -8.14287,5.085104 -0.70928,0.642156 -0.98668,0.799719 -0.62482,0.354896 0.35795,-0.44 0.85562,-1.088 1.10594,-1.44 0.38565,-0.542303 0.33134,-0.530091 -0.35581,0.08 -0.44602,0.396 -0.98166,0.72 -1.19032,0.72 -0.20865,0 -0.37937,0.144 -0.37937,0.32 0,0.176 -0.18,0.313778 -0.4,0.306175 -0.62897,-0.02174 3.89527,-4.118664 5.67659,-5.140444 2.10041,-1.204812 4.66073,-1.306054 5.42526,-0.214529 0.6995,0.998672 0.62211,2.385231 -0.29428,5.272279 -0.85065,2.679945 -2.72631,6.128028 -4.53254,8.332294 -1.2757,1.556821 -2.70261,1.868553 -3.31503,0.724225 z m -10.24,-0.301115 c 0,-0.165613 0.14235,-0.389092 0.31633,-0.49662 0.1814,-0.112108 0.23504,0.01634 0.12577,0.301115 -0.21274,0.554373 -0.4421,0.655803 -0.4421,0.195505 z m 1.58854,-2.846292 c 0.21082,-0.411074 0.47107,-0.659645 0.57834,-0.552381 0.10726,0.107264 -0.0652,0.443597 -0.38331,0.747407 -0.55288,0.528071 -0.56147,0.519488 -0.19503,-0.195026 z M 139.84,30.919182 c 0,-0.06645 0.252,-0.31845 0.56,-0.56 0.50753,-0.398039 0.51885,-0.38672 0.12081,0.120818 -0.41803,0.533039 -0.68081,0.702553 -0.68081,0.439182 z m 115.26774,-1.68501 c 0.65326,-0.271067 1.27737,-0.775228 1.38691,-1.120359 0.15866,-0.499879 0.29132,-0.551028 0.65226,-0.251479 1.10444,0.916605 -0.0682,1.915792 -2.20775,1.881177 l -1.01917,-0.01649 z M 142.4,28.48 c 0,-0.176 0.1525,-0.32 0.33888,-0.32 0.18639,0 0.24989,0.144 0.14112,0.32 -0.10878,0.176 -0.26128,0.32 -0.33889,0.32 -0.0776,0 -0.14111,-0.144 -0.14111,-0.32 z m 108.63999,-0.64 c -0.91586,-0.163983 -1.05241,-0.24791 -0.48,-0.295018 0.44,-0.03621 1.28795,-0.113472 1.88433,-0.171691 0.67816,-0.0662 0.92176,-0.0054 0.65032,0.162379 -0.27269,0.168533 0.27581,0.311922 1.47567,0.385774 l 1.90968,0.117542 -2.08,0.0151 c -1.144,0.0083 -2.656,-0.08803 -3.36,-0.214083 z m -3.67999,-0.32 -1.44,-0.223876 1.52,-0.04806 c 0.83599,-0.02643 1.51999,0.09594 1.51999,0.271938 0,0.176 -0.036,0.298372 -0.08,0.271938 -0.044,-0.02643 -0.728,-0.148806 -1.51999,-0.271938 z M 31.359999,27.399182 c 0,-0.06645 0.252,-0.31845 0.56,-0.56 0.507538,-0.398039 0.518857,-0.38672 0.120818,0.120818 -0.418038,0.533039 -0.680818,0.702553 -0.680818,0.439182 z M 255.12609,27.298243 c 0.31134,-0.08113 0.74334,-0.0758 0.96,0.01186 0.21665,0.08766 -0.0381,0.154038 -0.5661,0.147516 -0.528,-0.0065 -0.70525,-0.07824 -0.3939,-0.159373 z"
         id="path2" />
    </g>
  </g>
</svg>
